<?xml version="1.0" encoding="UTF-8"?>
<svg version="1.1" xmlns="http://www.w3.org/2000/svg" width="500" height="500">
<path d="M0 0 C165 0 330 0 500 0 C500 165 500 330 500 500 C335 500 170 500 0 500 C0 335 0 170 0 0 Z " fill="#F6F3EB" transform="translate(0,0)"/>
<path d="M0 0 C165 0 330 0 500 0 C500 165 500 330 500 500 C335 500 170 500 0 500 C0 335 0 170 0 0 Z M132 57 C127.05 65.58 122.1 74.16 117 83 C110.75 93.83333333 104.5 104.66666667 98.25 115.5 C97.63116943 116.57266113 97.01233887 117.64532227 96.37475586 118.75048828 C95.12564482 120.91557071 93.87645871 123.08060982 92.62719727 125.24560547 C89.48797691 130.68615706 86.35009437 136.12747216 83.21484375 141.5703125 C77.19252671 152.02206199 71.15330663 162.46299548 65.0625 172.875 C59.64177983 182.14330233 54.29940317 191.45464363 48.98379517 200.78341675 C44.28472978 209.02831674 39.54051016 217.24529425 34.75 225.4375 C33.90393188 226.89240845 33.90393188 226.89240845 33.04077148 228.37670898 C30.20742392 233.2467175 27.34416171 238.09446996 24.42578125 242.9140625 C23.30453869 244.79678638 22.1834388 246.67959525 21.0625 248.5625 C20.27214355 249.83855103 20.27214355 249.83855103 19.46582031 251.14038086 C17.34797231 254.73168728 16.04607542 257.21039378 15.80078125 261.4140625 C17.55246759 266.65200407 20.25642629 271.11134383 23.125 275.8125 C24.41100407 277.96694207 25.69613094 280.12190794 26.98046875 282.27734375 C27.6461084 283.38706543 28.31174805 284.49678711 28.99755859 285.64013672 C32.20275612 291.01808459 35.31894242 296.44650634 38.4375 301.875 C39.69639036 304.06002503 40.95550615 306.2449202 42.21484375 308.4296875 C42.83987793 309.51475586 43.46491211 310.59982422 44.10888672 311.71777344 C47.23680148 317.14659942 50.36858448 322.57319281 53.5 328 C54.75001879 330.16665583 56.00001878 332.3333225 57.25 334.5 C57.86875 335.5725 58.4875 336.645 59.125 337.75 C94.75 399.5 94.75 399.5 96.6262207 402.75219727 C97.8720577 404.91159395 99.11798818 407.07093669 100.36401367 409.23022461 C103.55348953 414.75767597 106.74116885 420.28615121 109.92578125 425.81640625 C115.54975836 435.58011894 121.17477593 445.34303524 126.875 455.0625 C127.28596924 455.76511963 127.69693848 456.46773926 128.12036133 457.19165039 C129.81992882 460.27242011 129.81992882 460.27242011 132 463 C135.01081647 463.13580328 137.99984966 463.20585713 141.01243591 463.23464966 C141.96995304 463.2474987 142.92747016 463.26034775 143.91400295 463.27358615 C147.14892615 463.31531014 150.38388196 463.34944683 153.61889648 463.38330078 C155.92791484 463.41082692 158.23693071 463.43856207 160.54594421 463.4664917 C181.65514986 463.71204006 202.76544964 463.85165806 223.87574673 463.96293831 C226.70256645 463.97810579 229.52938443 463.99356334 232.35620117 464.00927734 C233.05879765 464.01317112 233.76139413 464.0170649 234.48528142 464.02107666 C245.85389324 464.08589809 257.22094088 464.21369248 268.58868384 464.36573304 C280.26176255 464.52055739 291.93393848 464.60931965 303.60800797 464.64017475 C310.16243025 464.65946677 316.71360659 464.70818746 323.2670269 464.82797623 C329.43813059 464.93967051 335.60448365 464.97092431 341.77647591 464.94112396 C344.0381572 464.94419874 346.30001865 464.97630352 348.56080627 465.03995132 C359.91823503 465.75919048 359.91823503 465.75919048 369.8695519 461.34194899 C373.10267118 457.29455215 375.21268853 452.86829894 377.12849343 448.08164382 C378.39439508 445.05796456 380.02911304 442.36614715 381.73046875 439.56640625 C382.88355831 437.56553379 384.03589289 435.56422606 385.1875 433.5625 C386.4830528 431.31379049 387.77862632 429.06509292 389.07421875 426.81640625 C389.72438965 425.68734863 390.37456055 424.55829102 391.04443359 423.39501953 C394.19332054 417.9283002 397.34683264 412.46425113 400.5 407 C401.7500235 404.83334689 403.00002347 402.66668021 404.25 400.5 C416.75 378.83333333 429.25 357.16666667 441.75 335.5 C442.36883057 334.42733887 442.98766113 333.35467773 443.62524414 332.24951172 C444.87435518 330.08442929 446.12354129 327.91939018 447.37280273 325.75439453 C450.51202309 320.31384294 453.64990563 314.87252784 456.78515625 309.4296875 C463.10510203 298.46082969 469.44011887 287.50099615 475.8125 276.5625 C476.40554932 275.54333496 476.99859863 274.52416992 477.60961914 273.47412109 C478.15739014 272.5352002 478.70516113 271.5962793 479.26953125 270.62890625 C479.75010986 269.80463135 480.23068848 268.98035645 480.72583008 268.13110352 C481.76699718 266.38970715 482.87456125 264.68815812 484 263 C484.47621718 258.95256734 483.58255293 256.68805248 481.5 253.24609375 C480.95085937 252.32376953 480.40171875 251.40144531 479.8359375 250.45117188 C479.23007812 249.45666016 478.62421875 248.46214844 478 247.4375 C476.7069113 245.27037912 475.41530326 243.10237423 474.125 240.93359375 C473.61936523 240.08805435 473.61936523 240.08805435 473.10351562 239.22543335 C469.65544343 233.45254002 466.32526301 227.61455647 463.00439453 221.76785278 C457.72664879 212.47839809 452.39875191 203.21978637 447 194 C441.5964354 184.77199471 436.27347639 175.5000533 430.97949219 166.20898438 C426.36497196 158.11255867 421.70904745 150.04193491 417 142 C411.59780346 132.77433102 406.27611932 123.50477684 400.98352051 114.21603394 C395.78544066 105.0956101 390.5348478 96.00736201 385.21875 86.95507812 C379.39289955 77.01729534 373.7169668 67.00469189 368 57 C290.12 57 212.24 57 132 57 Z " fill="#FEFEFE" transform="translate(0,0)"/>
<path d="M0 0 C2.32656501 0.00479915 4.65315574 0.00209593 6.97970581 -0.00752258 C13.27870385 -0.01239124 19.57217367 0.0873741 25.86988878 0.20623469 C32.45727346 0.31267645 39.04479212 0.32250577 45.63290405 0.34266663 C56.68462724 0.38663235 67.73441842 0.49556392 78.78515625 0.64746094 C90.16330916 0.803695 101.54091179 0.92393092 112.91992188 0.99609375 C113.97337746 1.0027932 113.97337746 1.0027932 115.04811497 1.00962799 C118.571646 1.0318149 122.0951809 1.05329763 125.61871839 1.07443035 C154.81402059 1.25044149 184.00732501 1.55093402 213.20068359 1.92993164 C213.57475184 2.59256925 213.9488201 3.25520685 214.33422375 3.93792439 C216.04415025 6.96647029 217.75461452 9.99471215 219.46508789 13.02294922 C220.0535424 14.06538033 220.64199692 15.10781143 221.24828339 16.18183136 C225.11535426 23.02698838 229.02314354 29.84316131 233.01318359 36.61743164 C238.13480482 45.35499885 243.18730379 54.13001484 248.20068359 62.92993164 C253.15431858 71.62403324 258.14437697 80.29496052 263.20068359 88.92993164 C268.60424819 98.15793693 273.92720721 107.42987834 279.22119141 116.72094727 C284.39385012 125.79665718 289.6299716 134.83334523 294.90942383 143.84741211 C300.10060395 152.72495468 305.19745206 161.65525954 310.27490234 170.59814453 C313.48640969 176.24490672 316.73912623 181.86050022 320.10302734 187.41821289 C320.71073975 188.4254541 321.31845215 189.43269531 321.94458008 190.47045898 C323.08416066 192.3503788 324.23290175 194.22478754 325.39233398 196.0925293 C325.89627686 196.92445801 326.40021973 197.75638672 326.91943359 198.61352539 C327.36222656 199.33080811 327.80501953 200.04809082 328.26123047 200.78710938 C329.39549374 203.37427901 329.48386238 205.12957694 329.20068359 207.92993164 C327.93387147 210.44269075 326.62669483 212.74239113 325.13818359 215.11743164 C324.21212524 216.64251552 323.28775487 218.16862518 322.36474609 219.69555664 C321.85717773 220.53022461 321.34960938 221.36489258 320.82666016 222.22485352 C317.81759643 227.23092351 314.92276996 232.30312758 312.01318359 237.36743164 C310.71778522 239.61623011 309.42220995 241.86492669 308.12646484 244.11352539 C307.47629395 245.24258301 306.82612305 246.37164062 306.15625 247.53491211 C303.00736306 253.00163144 299.85385096 258.46568051 296.70068359 263.92993164 C295.45066009 266.09658475 294.20066013 268.26325143 292.95068359 270.42993164 C275.45068359 300.76326497 257.95068359 331.09659831 240.45068359 361.42993164 C239.5208667 363.04170288 239.5208667 363.04170288 238.57226562 364.68603516 C237.33386589 366.83247623 236.09526225 368.97879968 234.85644531 371.125 C231.91013004 376.2299517 228.96601902 381.33614131 226.0289917 386.44644165 C224.63218553 388.87653716 223.23423081 391.30597099 221.83618164 393.73535156 C220.84262368 395.46297579 219.85074051 397.19156284 218.85888672 398.92016602 C217.96459961 400.47380859 217.96459961 400.47380859 217.05224609 402.05883789 C216.52453613 402.97737549 215.99682617 403.89591309 215.453125 404.84228516 C214.20068359 406.92993164 214.20068359 406.92993164 213.20068359 407.92993164 C210.18519595 408.05684657 207.1917264 408.11792074 204.17478943 408.13766479 C202.73639705 408.15270497 202.73639705 408.15270497 201.26894623 408.16804898 C198.02934013 408.20034532 194.78972187 408.22514884 191.55004883 408.24975586 C189.23778553 408.2707387 186.92552461 408.29198503 184.61326599 408.31347656 C163.48309536 408.50140684 142.35214153 408.60424092 121.22131252 408.68562126 C118.39241391 408.69670965 115.56351619 408.70800189 112.73461914 408.71948242 C112.03149804 408.72232696 111.32837694 408.72517149 110.60394914 408.72810222 C99.22138529 408.77555162 87.83975167 408.87183374 76.45769417 408.9870535 C64.77330709 409.10435203 53.08945601 409.17129383 41.40449864 409.19375241 C34.84291354 409.20784168 28.28320897 409.24441546 21.72219658 409.33498764 C15.54669922 409.41935663 9.37399088 409.44244424 3.19799232 409.41862488 C0.93234867 409.42060414 -1.33340225 409.44484372 -3.59853363 409.49306107 C-20.26789113 409.82978186 -20.26789113 409.82978186 -24.46483302 406.67995119 C-27.57603343 403.20838288 -29.13178072 399.2599394 -30.79931641 394.92993164 C-31.94473936 392.89668418 -33.11872576 390.878959 -34.33447266 388.88696289 C-35.5121699 386.8398869 -36.68789178 384.79167342 -37.86181641 382.74243164 C-38.84082754 381.03950382 -39.81984188 379.33657784 -40.79904175 377.63375854 C-41.8037894 375.88597704 -42.80771555 374.13772568 -43.81152344 372.3894043 C-46.96654271 366.89853927 -50.13329604 361.41445819 -53.29931641 355.92993164 C-54.54937752 353.76330023 -55.79937741 351.5966335 -57.04931641 349.42993164 C-57.66806641 348.35743164 -58.28681641 347.28493164 -58.92431641 346.17993164 C-109.54931641 258.42993164 -109.54931641 258.42993164 -111.42724609 255.17480469 C-112.66742402 253.0251953 -113.90765767 250.87561806 -115.14794922 248.72607422 C-118.0728187 243.65683952 -120.99712474 238.58728228 -123.91943359 233.51657104 C-125.29738578 231.12566567 -126.67565813 228.73494493 -128.05395508 226.34423828 C-129.02472623 224.66009201 -129.99503515 222.97567933 -130.96533203 221.29125977 C-131.55507812 220.26838867 -132.14482422 219.24551758 -132.75244141 218.19165039 C-133.5282959 216.84526489 -133.5282959 216.84526489 -134.31982422 215.47167969 C-135.33740443 213.72349031 -136.39458001 211.99794455 -137.48339844 210.29321289 C-138.95674223 207.64720771 -139.13321712 206.00656149 -138.53466797 203.04174805 C-136.8004021 198.06120362 -133.87713906 193.61855735 -131.17431641 189.11743164 C-130.49406101 187.96515559 -129.81504721 186.81214575 -129.13720703 185.65844727 C-127.72955438 183.2647942 -126.31663942 180.87437056 -124.89990234 178.48608398 C-121.6494653 172.99646942 -118.47873041 167.46086617 -115.29931641 161.92993164 C-114.04968803 159.76305062 -112.79968687 157.59638454 -111.54931641 155.42993164 C-110.93056641 154.35743164 -110.31181641 153.28493164 -109.67431641 152.17993164 C-92.79931641 122.92993164 -75.92431641 93.67993164 -59.04931641 64.42993164 C-58.43016357 63.35670654 -57.81101074 62.28348145 -57.1730957 61.17773438 C-55.92725871 59.01833769 -54.68132822 56.85899495 -53.43530273 54.69970703 C-50.24582688 49.17225567 -47.05814756 43.64378043 -43.87353516 38.11352539 C-43.22255859 36.98366211 -42.57158203 35.85379883 -41.90087891 34.68969727 C-40.68280737 32.5754731 -39.46529701 30.46092545 -38.24853516 28.34594727 C-37.11977464 26.38729124 -35.96916912 24.44103195 -34.79514122 22.50916958 C-33.29950157 19.95791678 -32.14690971 17.39507938 -31.04905128 14.65075016 C-24.41639953 -0.63978148 -15.43584992 -0.44537115 0 0 Z M-20.89552426 34.84803212 C-22.1993186 37.85134303 -23.83583257 40.56339277 -25.52978516 43.36352539 C-26.68287472 45.36439785 -27.8352093 47.36570558 -28.98681641 49.36743164 C-30.28236921 51.61614115 -31.57794272 53.86483872 -32.87353516 56.11352539 C-33.52370605 57.24258301 -34.17387695 58.37164062 -34.84375 59.53491211 C-37.99263691 65.00163139 -41.14610131 70.4657081 -44.29931641 75.92993164 C-48.06297006 82.45225603 -51.82576263 88.97506928 -55.58447266 95.50024414 C-62.20154532 106.98441984 -68.84565617 118.45190058 -75.53222656 129.89575195 C-81.68659555 140.435735 -87.78083421 151.01018859 -93.87304688 161.58618164 C-96.52965657 166.19770589 -99.18761198 170.80845304 -101.84643555 175.41870117 C-103.10244538 177.59658046 -104.35816579 179.7746267 -105.61352539 181.95288086 C-106.19046143 182.95335449 -106.76739746 183.95382813 -107.36181641 184.98461914 C-107.91998047 185.96140625 -108.47814453 186.93819336 -109.05322266 187.94458008 C-110.2742849 190.03226872 -111.53572713 192.09662474 -112.82666016 194.1418457 C-113.47763672 195.18824219 -114.12861328 196.23463867 -114.79931641 197.31274414 C-115.39744141 198.24747559 -115.99556641 199.18220703 -116.61181641 200.14526367 C-118.09630542 203.626366 -117.83863319 205.32359174 -116.79931641 208.92993164 C-115.67056456 211.44273825 -115.67056456 211.44273825 -114.16650391 213.85180664 C-113.61551025 214.78105957 -113.0645166 215.7103125 -112.49682617 216.66772461 C-111.89539795 217.66175293 -111.29396973 218.65578125 -110.67431641 219.67993164 C-109.38838372 221.84353286 -108.10325431 224.00761166 -106.81884766 226.17211914 C-106.15320801 227.288125 -105.48756836 228.40413086 -104.80175781 229.55395508 C-101.60559502 234.94246265 -98.48421426 240.37345759 -95.36181641 245.80493164 C-94.10285545 247.989916 -92.84374002 250.17481136 -91.58447266 252.35961914 C-90.95943848 253.4446875 -90.3344043 254.52975586 -89.69042969 255.64770508 C-86.56251492 261.07653106 -83.43073193 266.50312445 -80.29931641 271.92993164 C-79.04929762 274.09658747 -77.79929762 276.26325414 -76.54931641 278.42993164 C-75.93056641 279.50243164 -75.31181641 280.57493164 -74.67431641 281.67993164 C-39.04931641 343.42993164 -39.04931641 343.42993164 -37.17089844 346.68603516 C-35.9324987 348.83247623 -34.69389506 350.97879968 -33.45507812 353.125 C-30.50876285 358.2299517 -27.56465183 363.33614131 -24.62762451 368.44644165 C-23.23081834 370.87653716 -21.83286362 373.30597099 -20.43481445 375.73535156 C-19.44125649 377.46297579 -18.44937332 379.19156284 -17.45751953 380.92016602 C-16.86132812 381.95592773 -16.26513672 382.99168945 -15.65087891 384.05883789 C-15.12316895 384.97737549 -14.59545898 385.89591309 -14.05175781 386.84228516 C-12.96496971 388.84514023 -12.96496971 388.84514023 -11.79931641 389.92993164 C-9.04293126 390.02781073 -6.31160801 390.05986396 -3.55479431 390.05018616 C-2.24269237 390.05146779 -2.24269237 390.05146779 -0.90408331 390.05277532 C2.05021152 390.05443282 5.00445056 390.04890438 7.95874023 390.04345703 C10.0672353 390.04317519 12.17573046 390.04333283 14.28422546 390.04389954 C20.02779325 390.04418764 25.77134035 390.03828891 31.51490331 390.03132558 C37.51005147 390.0250941 43.50520005 390.02448841 49.50035095 390.02330017 C60.86176456 390.02018624 72.22316859 390.01197203 83.58457798 390.00195068 C96.51543005 389.99079144 109.44628257 389.98527957 122.37713826 389.98025525 C148.98499202 389.96978947 175.59283727 389.95218885 202.20068359 389.92993164 C202.615802 389.21039307 203.03092041 388.49085449 203.45861816 387.74951172 C280.95068359 253.42993164 280.95068359 253.42993164 282.82910156 250.17456055 C284.06834826 248.02616652 285.30696395 245.87740839 286.54492188 243.72827148 C289.47565991 238.64219247 292.41279776 233.56012935 295.37237549 228.49078369 C296.77246528 226.09173594 298.16896454 223.69060754 299.56518555 221.28930664 C300.55411597 219.59194938 301.54824198 217.89762262 302.54248047 216.20336914 C303.13867188 215.17727539 303.73486328 214.15118164 304.34912109 213.09399414 C305.14068604 211.73975342 305.14068604 211.73975342 305.94824219 210.3581543 C307.55475528 207.27884605 307.55475528 207.27884605 308.20068359 203.92993164 C307.27384384 201.45785143 307.27384384 201.45785143 305.72802734 198.91430664 C305.16543213 197.92309814 304.60283691 196.93188965 304.02319336 195.91064453 C303.40114014 194.84450928 302.77908691 193.77837402 302.13818359 192.67993164 C301.50130615 191.56674561 300.86442871 190.45355957 300.20825195 189.30664062 C298.21932309 185.83953651 296.2125709 182.38375389 294.20068359 178.92993164 C293.60674805 177.90593262 293.0128125 176.88193359 292.40087891 175.8269043 C289.53353387 170.8841863 286.6534196 165.94913989 283.76318359 161.01977539 C280.06855049 154.71422745 276.41215678 148.38698728 272.76318359 142.05493164 C272.14064697 140.97477783 271.51811035 139.89462402 270.87670898 138.78173828 C269.61491533 136.5919683 268.35327826 134.40210809 267.09179688 132.2121582 C263.96388211 126.78333222 260.83209912 121.35673883 257.70068359 115.92993164 C256.4506648 113.76327581 255.20066481 111.59660914 253.95068359 109.42993164 C253.33193359 108.35743164 252.71318359 107.28493164 252.07568359 106.17993164 C246.4506836 96.42993164 246.4506836 96.42993164 244.57543945 93.17944336 C243.32632841 91.01436093 242.0771423 88.84932182 240.82788086 86.68432617 C237.6886605 81.24377458 234.55077797 75.80245948 231.41552734 70.35961914 C224.56595567 58.47201306 217.69176401 46.59951996 210.7668457 34.75561523 C210.22552002 33.82958496 209.68419434 32.90355469 209.12646484 31.94946289 C208.65635986 31.14613525 208.18625488 30.34280762 207.7019043 29.51513672 C205.85187055 26.32925163 204.0274214 23.12923429 202.20068359 19.92993164 C174.47187126 19.53262758 146.74348598 19.23294261 119.01239967 19.04912472 C106.13587877 18.96150103 93.26112723 18.84207071 80.38574219 18.64746094 C69.16202311 18.4778969 57.93958528 18.36831609 46.71462095 18.33042723 C40.77143743 18.30828 34.8319188 18.25633824 28.88991165 18.13252068 C23.29247155 18.01683162 17.70019141 17.98158237 12.10166931 18.00710106 C10.05118585 18.00243599 8.00052442 17.96876442 5.95107651 17.90343857 C-9.21563856 17.44384594 -14.98592394 20.69495017 -20.89552426 34.84803212 Z " fill="#050404" transform="translate(154.79931640625,55.070068359375)"/>
<path d="M0 0 C-1.35150743 3.79773589 -3.0652784 6.67194413 -5.5 9.875 C-8.7543529 14.25721528 -11.86197822 18.70093949 -14.875 23.25 C-15.28733887 23.87253662 -15.69967773 24.49507324 -16.12451172 25.13647461 C-16.97485171 26.42215064 -17.82461571 27.70820781 -18.67382812 28.99462891 C-20.98042679 32.48255259 -23.30386142 35.95924392 -25.625 39.4375 C-27.0834946 41.62489253 -28.5417482 43.81244559 -30 46 C-29.06937744 45.9285376 -28.13875488 45.8570752 -27.17993164 45.78344727 C-13.93269294 44.84666766 -0.71170142 44.886151 12.5625 44.9375 C14.84570214 44.94252872 17.12890535 44.94708918 19.41210938 44.95117188 C24.94143031 44.96206025 30.47070991 44.97868796 36 45 C28.40907124 33.47097804 28.40907124 33.47097804 20.375 22.25 C19.45818648 21.01182748 18.5415212 19.77354518 17.625 18.53515625 C17.18542969 17.9436377 16.74585938 17.35211914 16.29296875 16.74267578 C14.30761145 14.06679202 12.33977589 11.37854126 10.375 8.6875 C9.74335938 7.82511719 9.11171875 6.96273437 8.4609375 6.07421875 C7 4 7 4 6 2 C11.74495786 4.15815528 16.9599927 7.19100885 22.30859375 10.17504883 C24.09638527 11.17155036 25.887793 12.16129056 27.6796875 13.15039062 C34.15775714 16.74387528 40.49161216 20.48990851 46.69091797 24.5480957 C48.89659964 26.0371637 48.89659964 26.0371637 51.11767578 26.82104492 C54.02334335 28.64095007 54.76667058 30.85713559 56 34 C56.43237305 37.03833008 56.43237305 37.03833008 56.51171875 40.26953125 C56.5475708 41.47681885 56.58342285 42.68410645 56.62036133 43.92797852 C56.64251709 45.20987061 56.66467285 46.4917627 56.6875 47.8125 C56.71768831 49.14706901 56.74853915 50.48162318 56.7800293 51.81616211 C56.84075609 54.5407628 56.89068734 57.2652818 56.93261719 59.99023438 C56.99178081 63.78081782 57.09330643 67.56969505 57.1953125 71.359375 C57.23676843 73.59370687 57.27595228 75.82808245 57.3125 78.0625 C57.35733521 79.61191284 57.35733521 79.61191284 57.40307617 81.19262695 C57.43578638 85.37777502 57.39235604 88.22638282 55.48046875 91.99609375 C50.22874674 96.2388235 43.54868689 97.49097435 37.02734375 98.5703125 C36.30059952 98.69687225 35.57385529 98.82343201 34.8250885 98.9538269 C32.53041322 99.3515248 30.23405604 99.73832878 27.9375 100.125 C26.39506247 100.39123383 24.85274353 100.65815564 23.31054688 100.92578125 C16.88245085 102.03464995 10.45924674 103.07725047 4 104 C4 109.28 4 114.56 4 120 C-0.71119261 119.05776148 -4.3246861 117.53978976 -8.5390625 115.39453125 C-9.26056488 115.03284348 -9.98206726 114.6711557 -10.72543335 114.29850769 C-12.25147327 113.53213307 -13.77607396 112.76288672 -15.29931641 111.9909668 C-17.59366589 110.82837757 -19.89204683 109.67412781 -22.19140625 108.52148438 C-25.82502877 106.6962964 -29.44735798 104.85015107 -33.06359863 102.99078369 C-34.82417294 102.08996409 -36.59282484 101.20497546 -38.36230469 100.32177734 C-39.32297852 99.82758301 -40.28365234 99.33338867 -41.2734375 98.82421875 C-42.48265869 98.21259888 -42.48265869 98.21259888 -43.71630859 97.58862305 C-46.88740204 95.38268922 -49.32651226 93.49959077 -51 90 C-51.74052086 85.47667007 -51.70055592 81.00494542 -51.6640625 76.4296875 C-51.66884613 75.11590118 -51.67362976 73.80211487 -51.67855835 72.44851685 C-51.68590625 69.67615158 -51.6752904 66.90459504 -51.65185547 64.13232422 C-51.62331033 60.58314413 -51.63981707 57.03584982 -51.66971779 53.4867382 C-51.69214489 50.09257058 -51.67643923 46.69890868 -51.6640625 43.3046875 C-51.67418365 42.03172821 -51.68430481 40.75876892 -51.69473267 39.44723511 C-51.67897186 38.26565826 -51.66321106 37.08408142 -51.64697266 35.86669922 C-51.64299469 34.82778534 -51.63901672 33.78887146 -51.63491821 32.71847534 C-50.61499921 28.35157484 -47.46465628 26.9623183 -43.89794922 24.61889648 C-43.20717285 24.20712158 -42.51639648 23.79534668 -41.8046875 23.37109375 C-40.62048218 22.66231079 -40.62048218 22.66231079 -39.41235352 21.93920898 C-38.15636353 21.19586304 -38.15636353 21.19586304 -36.875 20.4375 C-36.00351318 19.91808838 -35.13202637 19.39867676 -34.23413086 18.86352539 C-25.82083042 13.8627607 -17.35319892 8.95564831 -8.86376953 4.08544922 C-7.25572446 3.14893253 -5.67036421 2.17366259 -4.08984375 1.19140625 C-2 0 -2 0 0 0 Z " fill="#FA3332" transform="translate(247,195)"/>
<path d="M0 0 C0.93263672 0.00499512 1.86527344 0.00999023 2.82617188 0.01513672 C10.66270723 0.21420778 16.4820787 1.54730835 22.3125 7.02734375 C27.67741968 13.01715464 28.2012552 18.04111036 28.0546875 25.890625 C27.16192092 34.66633053 22.75919224 40.18840439 16.10546875 45.671875 C5.75160256 53.5 5.75160256 53.5 2.6875 53.5 C12.53363791 64.97560439 22.91279787 75.8972346 33.6875 86.5 C37.38412387 79.76686366 39.57515305 72.87074256 41.6875 65.5 C44.9875 66.16 48.2875 66.82 51.6875 67.5 C51.11258495 72.93685097 49.74984369 77.55105605 47.75 82.625 C47.48509766 83.31464844 47.22019531 84.00429688 46.94726562 84.71484375 C45.55753871 88.32192651 44.13154112 91.91431334 42.6875 95.5 C43.11160156 95.93344727 43.53570312 96.36689453 43.97265625 96.81347656 C45.88800791 98.78250016 47.78776311 100.76591186 49.6875 102.75 C50.35523438 103.43191406 51.02296875 104.11382812 51.7109375 104.81640625 C52.34257812 105.48027344 52.97421875 106.14414062 53.625 106.828125 C54.21152344 107.4355957 54.79804688 108.04306641 55.40234375 108.66894531 C56.6875 110.5 56.6875 110.5 56.6875 114.5 C54.6875 117.25 54.6875 117.25 52.6875 119.5 C48.49523897 119.0151807 46.89338498 116.81649816 44.25 113.6875 C41.28542364 110.19703357 38.34379513 107.2664032 34.6875 104.5 C34.23761719 104.94730469 33.78773438 105.39460938 33.32421875 105.85546875 C21.9482429 116.54751819 7.23472721 120.03241337 -8.06689453 119.92163086 C-19.01896483 119.54581237 -28.8683218 115.5888601 -36.87109375 108.02734375 C-43.21844024 100.96427273 -43.91696531 94.46822148 -43.734375 85.23828125 C-42.75333761 76.54519992 -37.90744175 69.5143633 -31.2890625 63.96484375 C-30.17664815 63.11610308 -29.05935543 62.27372173 -27.9375 61.4375 C-27.38578125 61.01662109 -26.8340625 60.59574219 -26.265625 60.16210938 C-22.70229156 57.4645154 -19.05247799 54.94623938 -15.3125 52.5 C-15.90417969 51.84515625 -16.49585938 51.1903125 -17.10546875 50.515625 C-24.22817261 42.28907634 -30.46855738 33.30250522 -29.79296875 21.9453125 C-28.40030706 14.85745709 -24.87931925 9.31498633 -19.3515625 4.75390625 C-12.84432538 0.7523294 -7.54568261 -0.05251278 0 0 Z " fill="#060605" transform="translate(185.3125,301.5)"/>
<path d="M0 0 C0.92461029 -0.0127597 1.84922058 -0.02551941 2.80184937 -0.03866577 C3.79874786 -0.04089142 4.79564636 -0.04311707 5.82275391 -0.04541016 C6.84986481 -0.05206696 7.87697571 -0.05872375 8.93521118 -0.06558228 C11.10897021 -0.0757114 13.28276036 -0.08039922 15.45654297 -0.08007812 C18.77965684 -0.08444681 22.10143798 -0.12075225 25.42431641 -0.15869141 C27.53629103 -0.16456039 29.64827196 -0.16852924 31.76025391 -0.17041016 C32.75310394 -0.18478119 33.74595398 -0.19915222 34.76889038 -0.21395874 C39.15290545 -0.18498081 41.7105853 -0.14044175 45.52587891 2.16333008 C51.82832953 9.22521952 51.6066923 24.44165794 52.87353516 33.56787109 C52.98012451 34.33349365 53.08671387 35.09911621 53.1965332 35.88793945 C53.46098751 38.67732297 53.42431641 41.48863575 53.42431641 44.29052734 C57.71431641 44.29052734 62.00431641 44.29052734 66.42431641 44.29052734 C65.59526697 49.26482399 65.11862141 51.35649178 62.76416016 55.45068359 C62.22130371 56.40370361 61.67844727 57.35672363 61.11914062 58.33862305 C60.53922363 59.33337646 59.95930664 60.32812988 59.36181641 61.35302734 C58.77416504 62.37420654 58.18651367 63.39538574 57.58105469 64.44750977 C55.87404054 67.40231797 54.15251648 70.34807075 52.42431641 73.29052734 C51.97942871 74.05171875 51.53454102 74.81291016 51.07617188 75.59716797 C45.03682964 85.88218519 45.03682964 85.88218519 41.42431641 88.29052734 C38.84667969 88.53344727 38.84667969 88.53344727 35.74462891 88.52099609 C34.59752441 88.52035156 33.45041992 88.51970703 32.26855469 88.51904297 C31.04120605 88.50550781 29.81385742 88.49197266 28.54931641 88.47802734 C27.29747559 88.46578125 26.04563477 88.45353516 24.75585938 88.44091797 C22.20126605 88.41096734 19.64673005 88.37564718 17.09228516 88.33496094 C13.76352303 88.29463648 10.44050241 88.30971392 7.11181641 88.34130859 C5.25762812 88.32694361 3.40345618 88.31018076 1.54931641 88.29052734 C0.70771973 88.31010498 -0.13387695 88.32968262 -1.00097656 88.34985352 C-4.37324628 88.26577168 -6.64689107 88.08857995 -9.25805664 85.8449707 C-13.55155967 80.43311467 -16.53750525 73.99437091 -19.63818359 67.85302734 C-20.64875842 65.87457804 -21.66046304 63.89670538 -22.67333984 61.91943359 C-23.15432129 60.97213379 -23.63530273 60.02483398 -24.13085938 59.04882812 C-25.89791141 55.67536515 -27.81419039 52.4018201 -29.78833008 49.14575195 C-30.57568359 47.29052734 -30.57568359 47.29052734 -29.57568359 44.29052734 C-29.13401855 44.63196777 -28.69235352 44.9734082 -28.23730469 45.32519531 C-17.54446881 53.5791687 -6.82010877 61.79424389 4.42431641 69.29052734 C5.08431641 51.80052734 5.74431641 34.31052734 6.42431641 16.29052734 C-10.69069888 27.1236763 -10.69069888 27.1236763 -27.57568359 38.29052734 C-27.90568359 37.63052734 -28.23568359 36.97052734 -28.57568359 36.29052734 C-27.4074707 34.01904297 -27.4074707 34.01904297 -25.60302734 31.19677734 C-24.95011719 30.16552734 -24.29720703 29.13427734 -23.62451172 28.07177734 C-22.5794043 26.44755859 -22.5794043 26.44755859 -21.51318359 24.79052734 C-20.16729116 22.67647878 -18.82223011 20.56190068 -17.47802734 18.44677734 C-16.81915527 17.41681641 -16.1602832 16.38685547 -15.48144531 15.32568359 C-13.19337543 11.68165531 -11.02891729 7.97398177 -8.90209961 4.23388672 C-6.44833789 0.63882998 -4.10671735 0.03849936 0 0 Z " fill="#07BD64" transform="translate(358.57568359375,216.70947265625)"/>
<path d="M0 0 C0.92461029 -0.0127597 1.84922058 -0.02551941 2.80184937 -0.03866577 C3.79874786 -0.04089142 4.79564636 -0.04311707 5.82275391 -0.04541016 C6.84986481 -0.05206696 7.87697571 -0.05872375 8.93521118 -0.06558228 C11.10897021 -0.0757114 13.28276036 -0.08039922 15.45654297 -0.08007812 C18.77965684 -0.08444681 22.10143798 -0.12075225 25.42431641 -0.15869141 C27.53629103 -0.16456039 29.64827196 -0.16852924 31.76025391 -0.17041016 C32.75310394 -0.18478119 33.74595398 -0.19915222 34.76889038 -0.21395874 C39.15438346 -0.18497104 41.71031679 -0.1411097 45.52587891 2.16552734 C53.19091131 10.7453167 53.42431641 33.17088745 53.42431641 44.29052734 C57.71431641 44.29052734 62.00431641 44.29052734 66.42431641 44.29052734 C65.62052612 49.11326904 65.29409764 51.05020787 63.01806641 54.94287109 C62.52556396 55.79518311 62.03306152 56.64749512 61.52563477 57.52563477 C60.99719971 58.41742432 60.46876465 59.30921387 59.92431641 60.22802734 C59.11716187 61.61115112 59.11716187 61.61115112 58.29370117 63.0222168 C57.19985418 64.89221675 56.10165406 66.75967747 54.99902344 68.62451172 C53.56455715 71.0530965 52.14613766 73.49017155 50.73291016 75.93115234 C49.94347901 77.28065715 49.15317676 78.62965293 48.36181641 79.97802734 C48.00474609 80.59476318 47.64767578 81.21149902 47.27978516 81.84692383 C45.51658747 84.80748533 44.35067266 86.33962317 41.42431641 88.29052734 C38.84667969 88.53344727 38.84667969 88.53344727 35.74462891 88.52099609 C34.59752441 88.52035156 33.45041992 88.51970703 32.26855469 88.51904297 C31.04120605 88.50550781 29.81385742 88.49197266 28.54931641 88.47802734 C27.29747559 88.46578125 26.04563477 88.45353516 24.75585938 88.44091797 C22.20126605 88.41096734 19.64673005 88.37564718 17.09228516 88.33496094 C13.76352303 88.29463648 10.44050241 88.30971392 7.11181641 88.34130859 C5.25762812 88.32694361 3.40345618 88.31018076 1.54931641 88.29052734 C0.70771973 88.31010498 -0.13387695 88.32968262 -1.00097656 88.34985352 C-4.37324628 88.26577168 -6.64689107 88.08857995 -9.25805664 85.8449707 C-13.55155967 80.43311467 -16.53750525 73.99437091 -19.63818359 67.85302734 C-20.64875842 65.87457804 -21.66046304 63.89670538 -22.67333984 61.91943359 C-23.15432129 60.97213379 -23.63530273 60.02483398 -24.13085938 59.04882812 C-25.89791141 55.67536515 -27.81419039 52.4018201 -29.78833008 49.14575195 C-30.57568359 47.29052734 -30.57568359 47.29052734 -29.57568359 44.29052734 C-29.13401855 44.63196777 -28.69235352 44.9734082 -28.23730469 45.32519531 C-17.54446881 53.5791687 -6.82010877 61.79424389 4.42431641 69.29052734 C5.08431641 51.80052734 5.74431641 34.31052734 6.42431641 16.29052734 C-10.69069888 27.1236763 -10.69069888 27.1236763 -27.57568359 38.29052734 C-27.90568359 37.63052734 -28.23568359 36.97052734 -28.57568359 36.29052734 C-27.4074707 34.01904297 -27.4074707 34.01904297 -25.60302734 31.19677734 C-24.95011719 30.16552734 -24.29720703 29.13427734 -23.62451172 28.07177734 C-22.5794043 26.44755859 -22.5794043 26.44755859 -21.51318359 24.79052734 C-20.16729116 22.67647878 -18.82223011 20.56190068 -17.47802734 18.44677734 C-16.81915527 17.41681641 -16.1602832 16.38685547 -15.48144531 15.32568359 C-13.19337543 11.68165531 -11.02891729 7.97398177 -8.90209961 4.23388672 C-6.44833789 0.63882998 -4.10671735 0.03849936 0 0 Z " fill="#06BD64" transform="translate(106.57568359375,216.70947265625)"/>
<path d="M0 0 C5.74495786 2.15815528 10.9599927 5.19100885 16.30859375 8.17504883 C18.09638527 9.17155036 19.887793 10.16129056 21.6796875 11.15039062 C28.15775714 14.74387528 34.49161216 18.48990851 40.69091797 22.5480957 C42.89659964 24.0371637 42.89659964 24.0371637 45.11767578 24.82104492 C48.02808613 26.64392061 48.76848095 28.84908427 50 32 C50.43237305 35.13354492 50.43237305 35.13354492 50.51171875 38.48046875 C50.54724854 39.71909668 50.58277832 40.95772461 50.61938477 42.23388672 C50.64186279 43.5385791 50.66434082 44.84327148 50.6875 46.1875 C50.72028525 47.53404133 50.7540635 48.88055884 50.78881836 50.22705078 C51.03762713 60.48363019 51.11628382 70.74118301 51 81 C47.73692053 77.20588985 45.39743056 73.22185125 43.1796875 68.765625 C42.83495392 68.08699402 42.49022034 67.40836304 42.13504028 66.70916748 C40.67041127 63.82558438 39.21936106 60.93523147 37.76708984 58.04541016 C36.70101375 55.92888681 35.62806523 53.81595212 34.5546875 51.703125 C34.22757782 51.0458844 33.90046814 50.3886438 33.56344604 49.71148682 C31.95119007 46.23725502 31.95119007 46.23725502 29 44 C28.76023437 44.6496875 28.52046875 45.299375 28.2734375 45.96875 C26.6074519 49.93440897 24.63370747 53.69864245 22.625 57.5 C22.1909082 58.32371094 21.75681641 59.14742188 21.30957031 59.99609375 C16.95817774 68.18767495 12.34947095 76.22587736 7.71875 84.26171875 C4.72458501 89.4612966 1.82622303 94.70702967 -1 100 C-3.78380832 96.63458003 -6.20005438 93.22252027 -8.46875 89.4921875 C-9.11690674 88.43161133 -9.76506348 87.37103516 -10.43286133 86.27832031 C-11.45609497 84.59367676 -11.45609497 84.59367676 -12.5 82.875 C-13.92906925 80.53267818 -15.3607228 78.19194296 -16.79296875 75.8515625 C-17.14904709 75.26918823 -17.50512543 74.68681396 -17.87199402 74.08679199 C-21.60074976 67.99877504 -25.42187175 61.97025626 -29.28125 55.96435547 C-29.73113281 55.25939941 -30.18101562 54.55444336 -30.64453125 53.828125 C-31.22231323 52.9294873 -31.22231323 52.9294873 -31.81176758 52.01269531 C-33.34907373 49.40871916 -34.66987602 46.71449954 -36 44 C-21.80862693 42.91024605 -7.66435221 42.88246583 6.5625 42.9375 C8.84570214 42.94252872 11.12890535 42.94708918 13.41210938 42.95117188 C18.94143031 42.96206025 24.47070991 42.97868796 30 43 C22.40907124 31.47097804 22.40907124 31.47097804 14.375 20.25 C13.45818648 19.01182748 12.5415212 17.77354518 11.625 16.53515625 C11.18542969 15.9436377 10.74585938 15.35211914 10.29296875 14.74267578 C8.30761145 12.06679202 6.33977589 9.37854126 4.375 6.6875 C3.74335938 5.82511719 3.11171875 4.96273437 2.4609375 4.07421875 C1 2 1 2 0 0 Z " fill="#03BC62" transform="translate(253,197)"/>
<path d="M0 0 C1.47339844 0.51046875 1.47339844 0.51046875 2.9765625 1.03125 C10.19988168 3.73770883 16.65063429 7.34292741 22 13 C22 16 22 16 20.6875 17.60546875 C20.130625 18.12753906 19.57375 18.64960937 19 19.1875 C18.443125 19.71730469 17.88625 20.24710938 17.3125 20.79296875 C16.879375 21.19128906 16.44625 21.58960937 16 22 C11.76027233 20.01355417 8.01187211 17.37554435 4.14453125 14.75390625 C-3.61121952 10.42802787 -10.63558936 9.52042284 -19.4375 9.625 C-20.41009766 9.61339844 -21.38269531 9.60179688 -22.38476562 9.58984375 C-35.43267072 9.64213996 -46.67952228 14.3972184 -56.34375 23.1953125 C-65.69432271 33.38390823 -69.77614452 45.89187637 -69.3203125 59.58203125 C-68.05671455 73.06554594 -63.03482593 84.77139085 -53 94 C-40.30305134 104.02286431 -27.11208138 106.05126017 -11.3203125 104.78515625 C-2.34340196 103.47541029 7.93961649 98.77688205 14 92 C17.35915158 93.43963639 19.71624938 95.12416589 22 98 C21.78055972 100.63328336 21.20718571 101.77973947 19.390625 103.7109375 C4.20977986 115.51210544 -11.30849059 118.2200619 -30 117 C-45.91265235 114.99830272 -59.74403856 106.77383797 -70.08203125 94.640625 C-80.43748111 80.38342722 -83.57169003 64.32195167 -82 47 C-79.38804855 31.43712261 -70.89735701 17.60139796 -58.1875 8.25 C-41.22912386 -2.93476105 -19.39818527 -7.40115376 0 0 Z " fill="#070606" transform="translate(333,94)"/>
<path d="M0 0 C1.47339844 0.51046875 1.47339844 0.51046875 2.9765625 1.03125 C10.19988168 3.73770883 16.65063429 7.34292741 22 13 C22 16 22 16 20.6875 17.60546875 C20.130625 18.12753906 19.57375 18.64960937 19 19.1875 C18.443125 19.71730469 17.88625 20.24710938 17.3125 20.79296875 C16.879375 21.19128906 16.44625 21.58960937 16 22 C11.76027233 20.01355417 8.01187211 17.37554435 4.14453125 14.75390625 C-3.61121952 10.42802787 -10.63558936 9.52042284 -19.4375 9.625 C-20.41009766 9.61339844 -21.38269531 9.60179688 -22.38476562 9.58984375 C-35.43267072 9.64213996 -46.67952228 14.3972184 -56.34375 23.1953125 C-65.69432271 33.38390823 -69.77614452 45.89187637 -69.3203125 59.58203125 C-68.05671455 73.06554594 -63.03482593 84.77139085 -53 94 C-40.30305134 104.02286431 -27.11208138 106.05126017 -11.3203125 104.78515625 C-2.34340196 103.47541029 7.93961649 98.77688205 14 92 C17.35915158 93.43963639 19.71624938 95.12416589 22 98 C21.78055972 100.63328336 21.20718571 101.77973947 19.390625 103.7109375 C4.20977986 115.51210544 -11.30849059 118.2200619 -30 117 C-45.91265235 114.99830272 -59.74403856 106.77383797 -70.08203125 94.640625 C-80.43748111 80.38342722 -83.57169003 64.32195167 -82 47 C-79.38804855 31.43712261 -70.89735701 17.60139796 -58.1875 8.25 C-41.22912386 -2.93476105 -19.39818527 -7.40115376 0 0 Z " fill="#070606" transform="translate(212,94)"/>
<path d="M0 0 C1.78589042 1.68032055 3.17101631 3.49414728 4.5859375 5.4921875 C2.2759375 7.8021875 -0.0340625 10.1121875 -2.4140625 12.4921875 C-4.87950334 11.02601383 -7.3279958 9.54773307 -9.73828125 7.9921875 C-10.51816406 7.4971875 -11.29804688 7.0021875 -12.1015625 6.4921875 C-12.86855469 5.9971875 -13.63554687 5.5021875 -14.42578125 4.9921875 C-22.33108017 1.02403746 -30.01596296 -0.06490425 -38.7890625 -0.0078125 C-39.79984863 -0.00281738 -40.81063477 0.00217773 -41.85205078 0.00732422 C-49.59602379 0.18822902 -55.71982253 1.42398379 -62.4140625 5.4921875 C-63.21585937 5.93820312 -64.01765625 6.38421875 -64.84375 6.84375 C-75.23820228 13.10841989 -81.67165272 22.40980374 -85.5234375 33.76171875 C-88.53638371 46.38173465 -86.99376831 60.53601726 -81.09375 72.07421875 C-79.6654276 74.36499812 -78.13684745 76.41518509 -76.4140625 78.4921875 C-75.86234375 79.17796875 -75.310625 79.86375 -74.7421875 80.5703125 C-66.52893377 89.76634873 -54.39436892 94.78675196 -42.28125 95.73828125 C-28.29497657 96.25455309 -16.67820113 92.71743981 -5.4140625 84.4921875 C-4.4240625 83.8321875 -3.4340625 83.1721875 -2.4140625 82.4921875 C-0.1040625 84.8021875 2.2059375 87.1121875 4.5859375 89.4921875 C-3.1878372 99.72083842 -13.75792486 104.46575861 -26.1875 107.07421875 C-47.11669122 109.78538517 -63.24823256 105.2138355 -80.6015625 93.3046875 C-95.06875561 78.83749439 -99.71524742 63.68894282 -99.72875977 43.60058594 C-99.63030917 35.90396282 -98.94930972 29.43679777 -95.4140625 22.4921875 C-94.92808594 21.49445313 -94.44210937 20.49671875 -93.94140625 19.46875 C-86.38429556 5.28353513 -74.25881801 -4.73388066 -59.01171875 -9.73046875 C-58.15449219 -9.98699219 -57.29726563 -10.24351562 -56.4140625 -10.5078125 C-55.71152344 -10.73339844 -55.00898438 -10.95898438 -54.28515625 -11.19140625 C-35.80627331 -16.27572888 -14.95700736 -11.56065634 0 0 Z " fill="#060606" transform="translate(354.4140625,313.5078125)"/>
<path d="M0 0 C6.17654805 3.08827402 11.94108366 6.04691976 17.6875 9.75 C21.83540793 12.39003078 25.98554246 15.01261233 30.22265625 17.5078125 C30.89917236 17.90645508 31.57568848 18.30509766 32.27270508 18.71582031 C33.5548386 19.46746496 34.83968698 20.21450513 36.12768555 20.95605469 C39.55062737 22.96782108 42.3320253 25.05466159 45 28 C30.52404952 36.67740332 15.77655508 44.84978337 1 53 C2.26616195 55.5323239 3.24849656 55.75890313 5.796875 56.91796875 C6.97963013 57.46432983 6.97963013 57.46432983 8.1862793 58.02172852 C9.03230713 58.40643311 9.87833496 58.7911377 10.75 59.1875 C18.66865519 62.85449817 26.38081762 66.74584252 34 71 C34 71.33 34 71.66 34 72 C26.20549008 72.05765826 18.41275265 72.05972268 10.61816406 72.01220703 C8.33105934 72.00449075 6.0438508 72.00906917 3.75683594 72.03076172 C0.8988356 72.05714753 -1.95469058 72.03493655 -4.8125 72 C-5.65772217 72.0194165 -6.50294434 72.03883301 -7.3737793 72.05883789 C-10.7606713 71.97565834 -13.0608304 71.80486658 -15.68676758 69.55444336 C-19.97822588 64.1434138 -22.96264107 57.70222059 -26.0625 51.5625 C-27.07307483 49.58405069 -28.08477945 47.60617804 -29.09765625 45.62890625 C-29.5786377 44.68160645 -30.05961914 43.73430664 -30.55517578 42.75830078 C-32.32222781 39.38483781 -34.2385068 36.11129276 -36.21264648 32.85522461 C-37 31 -37 31 -36 28 C-35.55833496 28.34144043 -35.11666992 28.68288086 -34.66162109 29.03466797 C-23.96878522 37.28864136 -13.24442518 45.50371655 -2 53 C-1.34 35.51 -0.68 18.02 0 0 Z " fill="#FA3231" transform="translate(365,233)"/>
<path d="M0 0 C6.17654805 3.08827402 11.94108366 6.04691976 17.6875 9.75 C21.83540793 12.39003078 25.98554246 15.01261233 30.22265625 17.5078125 C30.89917236 17.90645508 31.57568848 18.30509766 32.27270508 18.71582031 C33.5548386 19.46746496 34.83968698 20.21450513 36.12768555 20.95605469 C39.55062737 22.96782108 42.3320253 25.05466159 45 28 C30.52404952 36.67740332 15.77655508 44.84978337 1 53 C2.26616195 55.5323239 3.24849656 55.75890313 5.796875 56.91796875 C6.97963013 57.46432983 6.97963013 57.46432983 8.1862793 58.02172852 C9.03230713 58.40643311 9.87833496 58.7911377 10.75 59.1875 C18.66865519 62.85449817 26.38081762 66.74584252 34 71 C34 71.33 34 71.66 34 72 C26.20549008 72.05765826 18.41275265 72.05972268 10.61816406 72.01220703 C8.33105934 72.00449075 6.0438508 72.00906917 3.75683594 72.03076172 C0.8988356 72.05714753 -1.95469058 72.03493655 -4.8125 72 C-5.65772217 72.0194165 -6.50294434 72.03883301 -7.3737793 72.05883789 C-10.7606713 71.97565834 -13.0608304 71.80486658 -15.68676758 69.55444336 C-19.97822588 64.1434138 -22.96264107 57.70222059 -26.0625 51.5625 C-27.07307483 49.58405069 -28.08477945 47.60617804 -29.09765625 45.62890625 C-29.5786377 44.68160645 -30.05961914 43.73430664 -30.55517578 42.75830078 C-32.32222781 39.38483781 -34.2385068 36.11129276 -36.21264648 32.85522461 C-37 31 -37 31 -36 28 C-35.55833496 28.34144043 -35.11666992 28.68288086 -34.66162109 29.03466797 C-23.96878522 37.28864136 -13.24442518 45.50371655 -2 53 C-1.34 35.51 -0.68 18.02 0 0 Z " fill="#F93231" transform="translate(113,233)"/>
<path d="M0 0 C1.90356445 1.54711914 1.90356445 1.54711914 3.86328125 3.53515625 C4.94706055 4.62666992 4.94706055 4.62666992 6.05273438 5.74023438 C6.79845703 6.50658203 7.54417969 7.27292969 8.3125 8.0625 C9.04662109 8.80177734 9.78074219 9.54105469 10.53710938 10.30273438 C14.6588288 14.48296978 18.60000494 18.7727986 22.43481445 23.21655273 C24.50694947 25.57764247 26.6995493 27.79647931 28.9375 30 C29.70964844 30.763125 30.48179687 31.52625 31.27734375 32.3125 C31.84582031 32.869375 32.41429687 33.42625 33 34 C30.54780362 40.3757106 23.61318961 43.10390417 17.87109375 46.1171875 C8.90786369 49.8007067 -4.29422159 49.59780228 -13.2109375 45.9140625 C-19.26135604 42.82280063 -23.45535899 39.47544226 -26.25 33.1875 C-27.76286634 26.75781806 -27.67421378 21.83394672 -24.44921875 16.07421875 C-19.82176263 9.45109423 -8.98954528 -3.32640347 0 0 Z " fill="#F4F1EA" transform="translate(180,363)"/>
<path d="M0 0 C3.375 0.25 3.375 0.25 7 1 C8.06787109 2.81420898 8.06787109 2.81420898 9 5 C9.82128226 6.25761975 10.66916421 7.49816086 11.5390625 8.72265625 C12.03317627 9.42060303 12.52729004 10.1185498 13.03637695 10.83764648 C13.82274536 11.93894897 13.82274536 11.93894897 14.625 13.0625 C15.43360474 14.20150757 15.43360474 14.20150757 16.25854492 15.36352539 C19.86285104 20.43192959 23.51092746 25.46741941 27.17578125 30.4921875 C29.12744044 33.17519649 31.07267673 35.86193925 33 38.5625 C33.5775 39.36816406 34.155 40.17382812 34.75 41.00390625 C36 43 36 43 36 45 C29.33297974 45.14497703 22.66590171 45.28704625 15.9987793 45.42724609 C13.7383489 45.47510458 11.47793167 45.52358962 9.2175293 45.57275391 C-3.85694151 45.85666663 -16.92222279 46.08151675 -30 46 C-28.52228801 42.12590012 -26.82692662 39.18475606 -24.3125 35.875 C-21.67213734 32.31994027 -19.15412213 28.75830352 -16.8125 25 C-11.49034864 16.48207084 -5.7004277 8.26709896 0 0 Z " fill="#DFD8BD" transform="translate(247,195)"/>
<path d="M0 0 C3.59140468 1.19713489 4.03349099 2.4619366 5.70239258 5.71148682 C6.02747803 6.36872742 6.35256348 7.02596802 6.6875 7.703125 C7.03127686 8.37792908 7.37505371 9.05273315 7.72924805 9.74798584 C8.82881987 11.91074752 9.91476645 14.08001351 11 16.25 C12.08795491 18.40422781 13.1786628 20.55703287 14.27075195 22.70916748 C14.94938965 24.04882882 15.6251563 25.38994966 16.29760742 26.73272705 C17.67841476 29.47740865 19.09095248 32.14764133 20.703125 34.76464844 C22.44270601 37.76306782 22.4980227 39.58498723 22 43 C19.19492731 48.02575524 15.25096439 49.35583633 10 51 C7.35967577 51.64792583 4.70877732 52.12651228 2.02734375 52.5703125 C1.30059952 52.69687225 0.57385529 52.82343201 -0.1749115 52.9538269 C-2.46958678 53.3515248 -4.76594396 53.73832878 -7.0625 54.125 C-8.60493753 54.39123383 -10.14725647 54.65815564 -11.68945312 54.92578125 C-18.11558193 56.03431059 -24.54058394 57.10200023 -31 58 C-29.5518455 54.17355051 -27.80988022 50.62296442 -25.875 47.01953125 C-25.25536377 45.86348389 -24.63572754 44.70743652 -23.99731445 43.51635742 C-23.33170696 42.28164986 -22.66593227 41.04703242 -22 39.8125 C-21.32048619 38.54862186 -20.64104324 37.28470562 -19.96166992 36.02075195 C-13.45474287 23.93088441 -6.82680166 11.91222954 0 0 Z " fill="#FC3333" transform="translate(282,241)"/>
<path d="M0 0 C-1.35150743 3.79773589 -3.0652784 6.67194413 -5.5 9.875 C-9.24476362 14.91316298 -12.75793866 20.06097593 -16.20581055 25.3034668 C-18.23827112 28.3855439 -20.29267506 31.4372594 -22.4609375 34.42578125 C-26.61371246 40.16056572 -30.01730581 45.67358796 -32.55859375 52.296875 C-34.5704991 57.46567249 -36.78847678 62.53902209 -39 67.625 C-39.41564209 68.59099121 -39.83128418 69.55698242 -40.25952148 70.55224609 C-48.04995354 88.52497677 -48.04995354 88.52497677 -51 90 C-51.11590012 82.24620292 -51.20471759 74.49260907 -51.25906086 66.73816299 C-51.28514472 63.13730504 -51.32051793 59.53704008 -51.37719727 55.93652344 C-51.43156439 52.46109959 -51.46142966 48.98624568 -51.47438622 45.51042938 C-51.48810817 43.54047326 -51.52713486 41.57074618 -51.56648254 39.60113525 C-51.5668602 38.40019226 -51.56723785 37.19924927 -51.56762695 35.96191406 C-51.57873001 34.90490295 -51.58983307 33.84789185 -51.60127258 32.7588501 C-50.63724589 28.33555655 -47.49095991 26.97960049 -43.89794922 24.61889648 C-43.20717285 24.20712158 -42.51639648 23.79534668 -41.8046875 23.37109375 C-40.62048218 22.66231079 -40.62048218 22.66231079 -39.41235352 21.93920898 C-38.15636353 21.19586304 -38.15636353 21.19586304 -36.875 20.4375 C-36.00351318 19.91808838 -35.13202637 19.39867676 -34.23413086 18.86352539 C-25.82083042 13.8627607 -17.35319892 8.95564831 -8.86376953 4.08544922 C-7.25572446 3.14893253 -5.67036421 2.17366259 -4.08984375 1.19140625 C-2 0 -2 0 0 0 Z " fill="#22221E" transform="translate(247,195)"/>
<path d="M0 0 C5.74495786 2.15815528 10.9599927 5.19100885 16.30859375 8.17504883 C18.09638527 9.17155036 19.887793 10.16129056 21.6796875 11.15039062 C28.15775714 14.74387528 34.49161216 18.48990851 40.69091797 22.5480957 C42.89659964 24.0371637 42.89659964 24.0371637 45.11767578 24.82104492 C48.02808613 26.64392061 48.76848095 28.84908427 50 32 C50.43237305 35.13354492 50.43237305 35.13354492 50.51171875 38.48046875 C50.54724854 39.71909668 50.58277832 40.95772461 50.61938477 42.23388672 C50.64186279 43.5385791 50.66434082 44.84327148 50.6875 46.1875 C50.72028525 47.53404133 50.7540635 48.88055884 50.78881836 50.22705078 C51.03762713 60.48363019 51.11628382 70.74118301 51 81 C47.83174816 77.29970532 45.51465548 73.45678391 43.35546875 69.1171875 C43.02259354 68.46227325 42.68971832 67.80735901 42.34675598 67.13259888 C41.28816935 65.04946327 40.23694099 62.96275631 39.1875 60.875 C33.294582 49.15260285 27.03306347 38.01940688 19.3125 27.375 C18.46433972 26.19958229 17.61670953 25.02378194 16.76953125 23.84765625 C16.32689941 23.23422363 15.88426758 22.62079102 15.42822266 21.98876953 C12.76384623 18.27868229 10.13300885 14.54488043 7.5 10.8125 C6.98348877 10.08144043 6.46697754 9.35038086 5.93481445 8.59716797 C5.45101318 7.91154785 4.96721191 7.22592773 4.46875 6.51953125 C4.04013672 5.91214111 3.61152344 5.30475098 3.16992188 4.67895508 C2.09289372 3.13331179 1.04498845 1.56748268 0 0 Z " fill="#262420" transform="translate(253,197)"/>
<path d="M0 0 C0.17180068 18.01998231 -0.36143351 35.99446307 -1 54 C-6.38981096 51.08051906 -11.14961 47.73488661 -16 44 C-17.71714386 42.70879876 -19.43597883 41.41984428 -21.15625 40.1328125 C-26.10416667 36.421875 -31.05208333 32.7109375 -36 29 C-36.66 29.33 -37.32 29.66 -38 30 C-38 24.82513661 -38 24.82513661 -37 22 C-35.21328826 20.59582185 -33.44645763 19.89010241 -31.34375 19.03125 C-28.81010831 17.91644766 -26.80132794 16.56295043 -24.5625 14.9375 C-19.78933799 11.51636041 -14.91900237 8.26852971 -10 5.0625 C-9.24533447 4.56548584 -8.49066895 4.06847168 -7.71313477 3.55639648 C-6.64857056 2.86525757 -6.64857056 2.86525757 -5.5625 2.16015625 C-4.60537109 1.53572632 -4.60537109 1.53572632 -3.62890625 0.89868164 C-2 0 -2 0 0 0 Z " fill="#ECD1BB" transform="translate(113,233)"/>
<path d="M0 0 C0.17180068 18.01998231 -0.36143351 35.99446307 -1 54 C-6.38981096 51.08051906 -11.14961 47.73488661 -16 44 C-17.71714386 42.70879876 -19.43597883 41.41984428 -21.15625 40.1328125 C-26.10416667 36.421875 -31.05208333 32.7109375 -36 29 C-36.66 29.33 -37.32 29.66 -38 30 C-38 24.82513661 -38 24.82513661 -37 22 C-35.21328826 20.59582185 -33.44645763 19.89010241 -31.34375 19.03125 C-28.81010831 17.91644766 -26.80132794 16.56295043 -24.5625 14.9375 C-19.78933799 11.51636041 -14.91900237 8.26852971 -10 5.0625 C-9.24533447 4.56548584 -8.49066895 4.06847168 -7.71313477 3.55639648 C-6.64857056 2.86525757 -6.64857056 2.86525757 -5.5625 2.16015625 C-4.60537109 1.53572632 -4.60537109 1.53572632 -3.62890625 0.89868164 C-2 0 -2 0 0 0 Z " fill="#EDD3BD" transform="translate(365,233)"/>
<path d="M0 0 C0.24483625 8.08060372 -0.43149229 15.77122303 -1.6875 23.75 C-1.83638672 24.83410156 -1.98527344 25.91820312 -2.13867188 27.03515625 C-3.16880651 33.65225637 -4.4560683 38.00237312 -9 43 C-12 44 -12 44 -15.1953125 42.6640625 C-16.51061483 41.99489736 -17.8201819 41.31438517 -19.125 40.625 C-19.81916016 40.26792969 -20.51332031 39.91085937 -21.22851562 39.54296875 C-23.49204491 38.37378204 -25.746623 37.18862564 -28 36 C-28.79631836 35.58202148 -29.59263672 35.16404297 -30.41308594 34.73339844 C-35.28553549 32.17442957 -40.14659337 29.59489067 -45 27 C-45 26.01 -45 25.02 -45 24 C-44.16529175 23.54898926 -44.16529175 23.54898926 -43.3137207 23.08886719 C-31.62739498 16.76599266 -20.00051428 10.36512972 -8.52856445 3.65917969 C-7.69929443 3.17868164 -6.87002441 2.69818359 -6.015625 2.203125 C-5.28633789 1.77676758 -4.55705078 1.35041016 -3.80566406 0.91113281 C-2 0 -2 0 0 0 Z " fill="#04BD63" transform="translate(411,261)"/>
<path d="M0 0 C-1.1385028 33.56620337 -1.1385028 33.56620337 -9 43 C-12 44 -12 44 -15.1953125 42.6640625 C-16.51061483 41.99489736 -17.8201819 41.31438517 -19.125 40.625 C-19.81916016 40.26792969 -20.51332031 39.91085937 -21.22851562 39.54296875 C-23.49204491 38.37378204 -25.746623 37.18862564 -28 36 C-28.79631836 35.58202148 -29.59263672 35.16404297 -30.41308594 34.73339844 C-35.28553549 32.17442957 -40.14659337 29.59489067 -45 27 C-45 26.01 -45 25.02 -45 24 C-44.19481934 23.55720703 -43.38963867 23.11441406 -42.56005859 22.65820312 C-39.49917434 20.97421299 -36.43886453 19.28918736 -33.37890625 17.60351562 C-32.06825352 16.88176242 -30.75738964 16.16039248 -29.44628906 15.43945312 C-27.53391161 14.3877924 -25.62224733 13.33484972 -23.7109375 12.28125 C-23.07734314 11.93231689 -22.44374878 11.58338379 -21.79095459 11.22387695 C-18.50424647 9.40745871 -15.23449409 7.56647788 -11.98535156 5.68359375 C-11.34312653 5.3119812 -10.70090149 4.94036865 -10.03921509 4.55749512 C-8.26287139 3.5261201 -6.4899728 2.48881819 -4.71728516 1.45117188 C-2 0 -2 0 0 0 Z " fill="#04BD63" transform="translate(159,261)"/>
<path d="M0 0 C4.14989888 2.36778504 6.04667982 4.70253947 7.5625 9.25 C7.94257803 15.04619002 7.57626522 18.1232873 4.5625 23.25 C-0.12376508 28.31915707 -6.71176017 35.0619318 -13.4375 37.25 C-17.24574264 36.11659445 -19.16295528 33.48026868 -21.5625 30.4375 C-22.58730469 29.15939453 -22.58730469 29.15939453 -23.6328125 27.85546875 C-27.88931037 21.71026512 -28.5340786 15.57669769 -27.4375 8.25 C-25.30377106 3.91420204 -22.27591162 1.74982231 -18.1875 -0.6875 C-11.82657346 -2.48976252 -6.09685515 -2.83548594 0 0 Z " fill="#F4F1E9" transform="translate(195.4375,311.75)"/>
<path d="M0 0 C5.03435736 3.24182103 9.90983619 6.63949701 14.6875 10.25 C16.249721 11.42512199 17.8119496 12.60023397 19.37451172 13.77490234 C20.46670678 14.59806768 21.55685105 15.42396051 22.64501953 16.25244141 C31.61542698 23.0529694 40.80466609 28.26010304 51 33 C53.61467355 34.21854222 56.22893573 35.43787562 58.84106445 36.66186523 C60.54716154 37.45900641 62.25656676 38.24911235 63.96948242 39.03149414 C64.74138916 39.38977295 65.5132959 39.74805176 66.30859375 40.1171875 C66.99751709 40.43284668 67.68644043 40.74850586 68.39624023 41.07373047 C70 42 70 42 71 44 C63.20549008 44.05765826 55.41275265 44.05972268 47.61816406 44.01220703 C45.33105934 44.00449075 43.0438508 44.00906917 40.75683594 44.03076172 C37.8988356 44.05714753 35.04530942 44.03493655 32.1875 44 C31.34227783 44.0194165 30.49705566 44.03883301 29.6262207 44.05883789 C26.2393287 43.97565834 23.9391696 43.80486658 21.31323242 41.55444336 C17.02177412 36.1434138 14.03735893 29.70222059 10.9375 23.5625 C9.92692517 21.58405069 8.91522055 19.60617804 7.90234375 17.62890625 C7.42007324 16.68160645 6.93780273 15.73430664 6.44091797 14.75830078 C4.68610131 11.39911429 2.80977309 8.11957787 0.88500977 4.85522461 C0 3 0 3 0 0 Z " fill="#22211E" transform="translate(76,261)"/>
<path d="M0 0 C5.03435736 3.24182103 9.90983619 6.63949701 14.6875 10.25 C16.249721 11.42512199 17.8119496 12.60023397 19.37451172 13.77490234 C20.46670678 14.59806768 21.55685105 15.42396051 22.64501953 16.25244141 C31.61542698 23.0529694 40.80466609 28.26010304 51 33 C53.61467355 34.21854222 56.22893573 35.43787562 58.84106445 36.66186523 C60.54716154 37.45900641 62.25656676 38.24911235 63.96948242 39.03149414 C64.74138916 39.38977295 65.5132959 39.74805176 66.30859375 40.1171875 C66.99751709 40.43284668 67.68644043 40.74850586 68.39624023 41.07373047 C70 42 70 42 71 44 C63.20549008 44.05765826 55.41275265 44.05972268 47.61816406 44.01220703 C45.33105934 44.00449075 43.0438508 44.00906917 40.75683594 44.03076172 C37.8988356 44.05714753 35.04530942 44.03493655 32.1875 44 C31.34227783 44.0194165 30.49705566 44.03883301 29.6262207 44.05883789 C26.2393287 43.97565834 23.9391696 43.80486658 21.31323242 41.55444336 C17.02177412 36.1434138 14.03735893 29.70222059 10.9375 23.5625 C9.92692517 21.58405069 8.91522055 19.60617804 7.90234375 17.62890625 C7.42007324 16.68160645 6.93780273 15.73430664 6.44091797 14.75830078 C4.68610131 11.39911429 2.80977309 8.11957787 0.88500977 4.85522461 C0 3 0 3 0 0 Z " fill="#22211E" transform="translate(328,261)"/>
<path d="M0 0 C1.29099861 0.00022659 1.29099861 0.00022659 2.608078 0.00045776 C3.99571098 0.01594162 3.99571098 0.01594162 5.41137695 0.03173828 C6.36156204 0.03456818 7.31174713 0.03739807 8.29072571 0.04031372 C11.32716435 0.05151363 14.36330863 0.0766179 17.3996582 0.10205078 C19.45759665 0.11208082 21.51553972 0.12120663 23.57348633 0.12939453 C28.6198238 0.15145236 33.66594108 0.18598096 38.7121582 0.22705078 C35.68977179 2.6547009 32.63447033 4.34813385 29.1340332 6.00439453 C28.05508789 6.51808594 26.97614258 7.03177734 25.86450195 7.56103516 C24.1803418 8.35477539 24.1803418 8.35477539 22.4621582 9.16455078 C18.21033299 11.18156914 13.96068322 13.20309223 9.7121582 15.22705078 C8.97602295 15.57219727 8.2398877 15.91734375 7.48144531 16.27294922 C1.94914484 18.93111995 -3.11069198 22.22085044 -8.2253418 25.60205078 C-9.06774414 26.15376953 -9.91014648 26.70548828 -10.77807617 27.27392578 C-16.30054819 30.89605523 -21.79730943 34.55673572 -27.2878418 38.22705078 C-27.6178418 37.56705078 -27.9478418 36.90705078 -28.2878418 36.22705078 C-27.11962891 33.95556641 -27.11962891 33.95556641 -25.31518555 31.13330078 C-24.66227539 30.10205078 -24.00936523 29.07080078 -23.33666992 28.00830078 C-22.2915625 26.38408203 -22.2915625 26.38408203 -21.2253418 24.72705078 C-19.87944936 22.61300222 -18.53438831 20.49842411 -17.19018555 18.38330078 C-16.53131348 17.35333984 -15.87244141 16.32337891 -15.19360352 15.26220703 C-12.90553363 11.61817875 -10.74107549 7.91050521 -8.61425781 4.17041016 C-6.23657702 0.68682114 -3.99783393 -0.02344771 0 0 Z " fill="#28211E" transform="translate(358.287841796875,216.77294921875)"/>
<path d="M0 0 C1.29099861 0.00022659 1.29099861 0.00022659 2.608078 0.00045776 C3.99571098 0.01594162 3.99571098 0.01594162 5.41137695 0.03173828 C6.36156204 0.03456818 7.31174713 0.03739807 8.29072571 0.04031372 C11.32716435 0.05151363 14.36330863 0.0766179 17.3996582 0.10205078 C19.45759665 0.11208082 21.51553972 0.12120663 23.57348633 0.12939453 C28.6198238 0.15145236 33.66594108 0.18598096 38.7121582 0.22705078 C35.68977179 2.6547009 32.63447033 4.34813385 29.1340332 6.00439453 C28.05508789 6.51808594 26.97614258 7.03177734 25.86450195 7.56103516 C24.1803418 8.35477539 24.1803418 8.35477539 22.4621582 9.16455078 C18.21033416 11.18156859 13.95997128 13.20159876 9.7121582 15.22705078 C8.95644531 15.58524902 8.20073242 15.94344727 7.42211914 16.3125 C2.52557438 18.68632761 -1.99887851 21.48172381 -6.5378418 24.47705078 C-7.2693042 24.95505127 -8.0007666 25.43305176 -8.75439453 25.92553711 C-14.95804733 29.98691155 -21.13478764 34.08944789 -27.2878418 38.22705078 C-27.6178418 37.56705078 -27.9478418 36.90705078 -28.2878418 36.22705078 C-27.11962891 33.95556641 -27.11962891 33.95556641 -25.31518555 31.13330078 C-24.66227539 30.10205078 -24.00936523 29.07080078 -23.33666992 28.00830078 C-22.2915625 26.38408203 -22.2915625 26.38408203 -21.2253418 24.72705078 C-19.87944936 22.61300222 -18.53438831 20.49842411 -17.19018555 18.38330078 C-16.53131348 17.35333984 -15.87244141 16.32337891 -15.19360352 15.26220703 C-12.90553363 11.61817875 -10.74107549 7.91050521 -8.61425781 4.17041016 C-6.23657702 0.68682114 -3.99783393 -0.02344771 0 0 Z " fill="#28221E" transform="translate(106.287841796875,216.77294921875)"/>
<path d="M0 0 C-2.90993497 3.15912474 -5.78749441 5.20900744 -9.54296875 7.27734375 C-10.61740234 7.87353516 -11.69183594 8.46972656 -12.79882812 9.08398438 C-13.91708984 9.69564453 -15.03535156 10.30730469 -16.1875 10.9375 C-17.83588867 11.84918945 -17.83588867 11.84918945 -19.51757812 12.77929688 C-21.67249102 13.97047413 -23.82982329 15.15728682 -25.98974609 16.33935547 C-27.9029206 17.39478231 -29.80800383 18.46511697 -31.70166016 19.55517578 C-32.49749512 20.01263184 -33.29333008 20.47008789 -34.11328125 20.94140625 C-34.79817627 21.34174072 -35.48307129 21.7420752 -36.1887207 22.15454102 C-38 23 -38 23 -41 23 C-41 17.72 -41 12.44 -41 7 C-32.9173426 4.75481739 -24.83156976 3.19977791 -16.5625 1.8125 C-15.50804687 1.63364258 -14.45359375 1.45478516 -13.3671875 1.27050781 C-12.36042969 1.10518555 -11.35367187 0.93986328 -10.31640625 0.76953125 C-9.41349854 0.62104736 -8.51059082 0.47256348 -7.58032227 0.31958008 C-5.02421138 0.00299865 -2.5726662 -0.05708022 0 0 Z " fill="#ECD9C2" transform="translate(292,292)"/>
<path d="M0 0 C8.82337326 -0.24851332 17.42374312 0.52867997 26.1875 1.5 C27.534448 1.64506343 28.88145307 1.78959797 30.22851562 1.93359375 C33.48623781 2.28388646 36.7432018 2.6412183 40 3 C40 8.61 40 14.22 40 20 C34.37357122 18.87471424 34.37357122 18.87471424 31.32714844 17.35766602 C30.65004822 17.02384415 29.972948 16.69002228 29.27532959 16.34608459 C28.56056458 15.98566574 27.84579956 15.62524689 27.109375 15.25390625 C26.36415588 14.88273178 25.61893677 14.51155731 24.85113525 14.12913513 C23.28306948 13.34611988 21.71650507 12.56009164 20.15136719 11.77124023 C17.74854333 10.56176678 15.33955618 9.36528545 12.9296875 8.16992188 C11.40586441 7.40701969 9.88241349 6.64337359 8.359375 5.87890625 C7.63651306 5.52051163 6.91365112 5.162117 6.16888428 4.79286194 C1.1149722 2.2299444 1.1149722 2.2299444 0 0 Z " fill="#195336" transform="translate(211,295)"/>
<path d="M0 0 C0.20638953 23.78877436 0.20638953 23.78877436 -1 34 C-2.65 33.34 -4.3 32.68 -6 32 C-6 31.34 -6 30.68 -6 30 C-6.66 30 -7.32 30 -8 30 C-10.29633824 26.55549263 -10.54016485 24.06187717 -11 20 C-11.66 20 -12.32 20 -13 20 C-13 19.34 -13 18.68 -13 18 C-12.01 18 -11.02 18 -10 18 C-9.67 19.32 -9.34 20.64 -9 22 C-8.01 22 -7.02 22 -6 22 C-7.08784968 18.75016865 -7.08784968 18.75016865 -9 16 C-13.8940289 16.20082989 -13.8940289 16.20082989 -17.875 18.75 C-19.08863527 21.17727054 -19.62769367 23.31939441 -20 26 C-20.33 25.34 -20.66 24.68 -21 24 C-21.66 23.67 -22.32 23.34 -23 23 C-22.34 23 -21.68 23 -21 23 C-21 22.34 -21 21.68 -21 21 C-21.66 21 -22.32 21 -23 21 C-23 20.34 -23 19.68 -23 19 C-22.34 19 -21.68 19 -21 19 C-21 18.34 -21 17.68 -21 17 C-22.32 16.34 -23.64 15.68 -25 15 C-21.21315911 12.49262942 -17.41975843 9.9953684 -13.625 7.5 C-12.54476563 6.78457031 -11.46453125 6.06914062 -10.3515625 5.33203125 C-9.3203125 4.65527344 -8.2890625 3.97851562 -7.2265625 3.28125 C-6.27346191 2.65283203 -5.32036133 2.02441406 -4.33837891 1.37695312 C-2 0 -2 0 0 0 Z " fill="#EBCEB8" transform="translate(365,233)"/>
<path d="M0 0 C1.8125 1.25 1.8125 1.25 3 3 C3 4.32 3 5.64 3 7 C0 7 0 7 -2.1875 5 C-2.785625 4.34 -3.38375 3.68 -4 3 C-4 3.66 -4 4.32 -4 5 C-3.34 5 -2.68 5 -2 5 C-1.25 8.1875 -1.25 8.1875 -1 12 C-3 14.6875 -3 14.6875 -5 17 C-4.87436418 19.26424351 -4.87436418 19.26424351 -4 21 C-4.66 21 -5.32 21 -6 21 C-5.67 23.31 -5.34 25.62 -5 28 C-5.66 28.33 -6.32 28.66 -7 29 C-10.63 26.36 -14.26 23.72 -18 21 C-17.835 19.88625 -17.67 18.7725 -17.5 17.625 C-16.9544542 14.27967967 -16.9544542 14.27967967 -17 12 C-17.66 11.67 -18.32 11.34 -19 11 C-19 10.34 -19 9.68 -19 9 C-16.625 7.9375 -16.625 7.9375 -14 7 C-13.34 7.33 -12.68 7.66 -12 8 C-12 6.35 -12 4.7 -12 3 C-4.15384615 -0.69230769 -4.15384615 -0.69230769 0 0 Z " fill="#E8CDB7" transform="translate(104,248)"/>
<path d="M0 0 C1.8125 1.25 1.8125 1.25 3 3 C3 4.32 3 5.64 3 7 C2.01 7 1.02 7 0 7 C-0.33 5.68 -0.66 4.36 -1 3 C-1.99 3 -2.98 3 -4 3 C-4 3.66 -4 4.32 -4 5 C-3.34 5 -2.68 5 -2 5 C-0.77840909 11.35227273 -0.77840909 11.35227273 -1.8125 14.375 C-3 16 -3 16 -5 17 C-5.33 17.66 -5.66 18.32 -6 19 C-6.68707031 18.278125 -7.37414062 17.55625 -8.08203125 16.8125 C-8.98308594 15.884375 -9.88414062 14.95625 -10.8125 14 C-11.70582031 13.071875 -12.59914063 12.14375 -13.51953125 11.1875 C-15.82379728 8.66928685 -15.82379728 8.66928685 -19 9 C-19 9.66 -19 10.32 -19 11 C-20.32 10.67 -21.64 10.34 -23 10 C-23.66 11.65 -24.32 13.3 -25 15 C-25.99 15 -26.98 15 -28 15 C-29.28163292 11.15510125 -28.69835501 9.62830387 -27 6 C-24.625 4.8125 -24.625 4.8125 -22 4 C-21.360625 3.443125 -20.72125 2.88625 -20.0625 2.3125 C-18 1 -18 1 -14.75 1.3125 C-13.8425 1.539375 -12.935 1.76625 -12 2 C-12 2.66 -12 3.32 -12 4 C-12.66 4 -13.32 4 -14 4 C-14 4.66 -14 5.32 -14 6 C-13.34 6 -12.68 6 -12 6 C-12 6.99 -12 7.98 -12 9 C-11.5875 8.071875 -11.175 7.14375 -10.75 6.1875 C-8.11032512 1.37952076 -5.65253981 -0.86962151 0 0 Z " fill="#EDD4BE" transform="translate(356,248)"/>
<path d="M0 0 C0 0.66 0 1.32 0 2 C0.66 2.33 1.32 2.66 2 3 C1.01 3.495 1.01 3.495 0 4 C0 4.66 0 5.32 0 6 C0.66 6 1.32 6 2 6 C2 6.66 2 7.32 2 8 C2.5775 8.226875 3.155 8.45375 3.75 8.6875 C6.66350652 10.38704547 8.16311664 12.17907198 10 15 C10.5 17.5625 10.5 17.5625 10 20 C8.3125 22.3125 8.3125 22.3125 6 24 C3.25 24.25 3.25 24.25 1 24 C1.3125 22.0625 1.3125 22.0625 2 20 C2.99 19.67 3.98 19.34 5 19 C5.33 18.01 5.66 17.02 6 16 C5.34 16 4.68 16 4 16 C3.67 16.99 3.34 17.98 3 19 C-3.22680412 20.31720856 -3.22680412 20.31720856 -6.4375 19 C-8.7346014 16.05971021 -8.27274472 13.61386759 -8 10 C-9.32 11.32 -10.64 12.64 -12 14 C-12.99 13.67 -13.98 13.34 -15 13 C-12 10 -9 7 -6 4 C-5.28328125 3.24203125 -4.5665625 2.4840625 -3.828125 1.703125 C-2 0 -2 0 0 0 Z " fill="#282724" transform="translate(254,209)"/>
<path d="M0 0 C2.39769551 6.8933746 3.03832848 13.9066169 1 21 C0.34 21 -0.32 21 -1 21 C-1.66 22.98 -2.32 24.96 -3 27 C-2.01 27 -1.02 27 0 27 C0.33 27.66 0.66 28.32 1 29 C0.16331593 31.40399367 -0.73209409 33.67469201 -1.75 36 C-2.01554688 36.64195312 -2.28109375 37.28390625 -2.5546875 37.9453125 C-4.0318357 41.37286998 -4.8223177 42.88154513 -8 45 C-8 35.1 -8 25.2 -8 15 C-6.68 15.33 -5.36 15.66 -4 16 C-4.51958285 11.62065881 -5.05675742 7.31196609 -6 3 C-2.25 0 -2.25 0 0 0 Z " fill="#3C201E" transform="translate(204,240)"/>
<path d="M0 0 C2.77399816 3.42882073 4.7987241 7.17131364 6.828125 11.06640625 C7.35802032 12.07936012 7.35802032 12.07936012 7.89862061 13.11277771 C8.64017178 14.53465946 9.37965599 15.95762089 10.1171875 17.3815918 C11.25062649 19.56370613 12.3985095 21.73782162 13.546875 23.91210938 C14.26652728 25.29640631 14.98530798 26.68115677 15.703125 28.06640625 C16.04885559 28.71646133 16.39458618 29.36651642 16.75079346 30.03627014 C17.57797695 31.65351923 18.29839288 33.32444798 19 35 C18.67 35.99 18.34 36.98 18 38 C18 37.34 18 36.68 18 36 C13.71 36 9.42 36 5 36 C4.28399124 31.51656644 3.57202663 27.03251622 2.86376953 22.54785156 C2.62236245 21.02293649 2.37985948 19.49819448 2.13623047 17.97363281 C1.78583774 15.77974528 1.43941639 13.58526154 1.09375 11.390625 C0.9843811 10.7113092 0.87501221 10.03199341 0.7623291 9.33209229 C0.26541263 6.15332663 0 3.23180685 0 0 Z " fill="#EADDC4" transform="translate(155,225)"/>
<path d="M0 0 C2.53726149 3.17408877 4.41038603 6.4847115 6.28515625 10.0859375 C6.58691269 10.66534088 6.88866913 11.24474426 7.1995697 11.84170532 C7.83416453 13.06279799 8.46690917 14.28485379 9.09790039 15.5078125 C10.05739619 17.36512049 11.02535407 19.21783717 11.99414062 21.0703125 C12.61249669 22.26275261 13.23035176 23.45545267 13.84765625 24.6484375 C14.40461182 25.72270996 14.96156738 26.79698242 15.53540039 27.90380859 C17 31 17 31 19 37 C12.07 36.505 12.07 36.505 5 36 C4.28507066 31.51637169 3.57202829 27.03252673 2.86376953 22.54785156 C2.62236245 21.02293649 2.37985948 19.49819448 2.13623047 17.97363281 C1.78583774 15.77974528 1.43941639 13.58526154 1.09375 11.390625 C0.9843811 10.7113092 0.87501221 10.03199341 0.7623291 9.33209229 C0.26541263 6.15332663 0 3.23180685 0 0 Z " fill="#EADDC4" transform="translate(407,225)"/>
<path d="M0 0 C4.29 0 8.58 0 13 0 C12.15808183 5.05150904 11.59539001 7.24369284 9.19921875 11.44140625 C8.63396484 12.43720703 8.06871094 13.43300781 7.48632812 14.45898438 C6.89271484 15.48314453 6.29910156 16.50730469 5.6875 17.5625 C5.10548828 18.59052734 4.52347656 19.61855469 3.92382812 20.67773438 C1.2110803 25.41813063 -1.50331701 29.78814029 -5 34 C-4.34109546 28.66567708 -3.67401786 23.33243433 -3 18 C-2.90928223 17.28005859 -2.81856445 16.56011719 -2.72509766 15.81835938 C-2.46604808 13.77427421 -2.20251086 11.73081988 -1.9375 9.6875 C-1.78152344 8.47449219 -1.62554687 7.26148438 -1.46484375 6.01171875 C-1 3 -1 3 0 0 Z " fill="#522422" transform="translate(412,261)"/>
<path d="M0 0 C4.29 0 8.58 0 13 0 C12.17780006 4.93319966 11.77276167 6.92373389 9.41796875 10.93359375 C8.89783203 11.83013672 8.37769531 12.72667969 7.84179688 13.65039062 C7.02291992 15.03000977 7.02291992 15.03000977 6.1875 16.4375 C5.65318359 17.35337891 5.11886719 18.26925781 4.56835938 19.21289062 C3.52878466 20.99410536 2.4857813 22.77332452 1.43896484 24.55029297 C-0.40212255 27.68457714 -2.20451153 30.8394186 -4 34 C-5.22179841 30.39301961 -4.82712035 27.54050866 -4.2578125 23.80859375 C-4.07863281 22.61685547 -3.89945313 21.42511719 -3.71484375 20.19726562 C-3.52019531 18.95654297 -3.32554687 17.71582031 -3.125 16.4375 C-2.84462891 14.57061523 -2.84462891 14.57061523 -2.55859375 12.66601562 C-1.1527535 3.45826049 -1.1527535 3.45826049 0 0 Z " fill="#552423" transform="translate(160,261)"/>
<path d="M0 0 C2.375 0.875 2.375 0.875 4.375 2.875 C4.5 6 4.5 6 4.375 8.875 C5.014375 9.184375 5.65375 9.49375 6.3125 9.8125 C8.375 10.875 8.375 10.875 9.375 11.875 C9.66931219 14.6709658 9.71272308 16.31212819 8.25 18.75 C6.375 19.875 6.375 19.875 3.3125 19.6875 C0.375 18.875 0.375 18.875 -1.625 16.875 C-1.625 15.555 -1.625 14.235 -1.625 12.875 C-2.264375 12.75125 -2.90375 12.6275 -3.5625 12.5 C-4.243125 12.29375 -4.92375 12.0875 -5.625 11.875 C-7.04541821 9.03416359 -6.93952272 7.02022722 -6.625 3.875 C-4.55425273 0.88392061 -3.70318945 -0.17634235 0 0 Z " fill="#F1C2AE" transform="translate(220.625,266.125)"/>
<path d="M0 0 C8.36628849 7.05024311 8.36628849 7.05024311 11 10 C11 10.66 11 11.32 11 12 C11.66 12.33 12.32 12.66 13 13 C12.34 13 11.68 13 11 13 C11.33 15.31 11.66 17.62 12 20 C11.34 20.33 10.68 20.66 10 21 C7.18267885 18.88133175 4.37200195 16.75402306 1.5625 14.625 C0.76005859 14.02171875 -0.04238281 13.4184375 -0.86914062 12.796875 C-1.63291016 12.21679688 -2.39667969 11.63671875 -3.18359375 11.0390625 C-4.24404907 10.23782959 -4.24404907 10.23782959 -5.32592773 9.42041016 C-7 8 -7 8 -8 6 C-7.0625 3.375 -7.0625 3.375 -6 1 C-4.68 1.66 -3.36 2.32 -2 3 C-2 2.34 -2 1.68 -2 1 C-1.34 0.67 -0.68 0.34 0 0 Z " fill="#D7BEAA" transform="translate(339,256)"/>
<path d="M0 0 C2.6875 1.6875 2.6875 1.6875 4 4 C3.875 6.6875 3.875 6.6875 3 9 C2.01 9.495 2.01 9.495 1 10 C0.34 9.67 -0.32 9.34 -1 9 C-1 7.35 -1 5.7 -1 4 C-1.99 4.495 -1.99 4.495 -3 5 C-2.938125 5.78375 -2.87625 6.5675 -2.8125 7.375 C-2.874375 8.24125 -2.93625 9.1075 -3 10 C-6.69486103 12.46324069 -8.63293092 12.38991688 -13 12 C-15 10.875 -15 10.875 -16 9 C-16 6 -16 6 -15 3 C-10.90549077 -0.96242829 -5.36664847 -0.81312856 0 0 Z " fill="#1A3224" transform="translate(257,260)"/>
<path d="M0 0 C2.97 0.33 5.94 0.66 9 1 C9 1.66 9 2.32 9 3 C10.32 3.33 11.64 3.66 13 4 C13 3.01 13 2.02 13 1 C16.75345656 1.71971619 19.86091969 3.33112202 23.25 5.0625 C24.32765625 5.61035156 25.4053125 6.15820312 26.515625 6.72265625 C27.33546875 7.14417969 28.1553125 7.56570313 29 8 C29 8.33 29 8.66 29 9 C20.09 9 11.18 9 2 9 C2 8.67 2 8.34 2 8 C4.31 8 6.62 8 9 8 C9 7.34 9 6.68 9 6 C4.05 6 -0.9 6 -6 6 C-6 5.34 -6 4.68 -6 4 C-6.66 3.34 -7.32 2.68 -8 2 C-7 1 -7 1 -3.4375 0.9375 C-2.303125 0.958125 -1.16875 0.97875 0 1 C0 0.67 0 0.34 0 0 Z " fill="#183A28" transform="translate(370,296)"/>
<path d="M0 0 C3.125 0.4375 3.125 0.4375 5.5 2.5625 C7.346621 5.82959869 7.4684538 7.74537163 7.125 11.4375 C6.135 11.7675 5.145 12.0975 4.125 12.4375 C3.465 12.1075 2.805 11.7775 2.125 11.4375 C1.5 8.875 1.5 8.875 1.125 6.4375 C0.465 6.4375 -0.195 6.4375 -0.875 6.4375 C-0.813125 7.22125 -0.75125 8.005 -0.6875 8.8125 C-0.749375 9.67875 -0.81125 10.545 -0.875 11.4375 C-1.865 12.0975 -2.855 12.7575 -3.875 13.4375 C-4.865 12.7775 -5.855 12.1175 -6.875 11.4375 C-6.524375 12.22125 -6.17375 13.005 -5.8125 13.8125 C-5.503125 14.67875 -5.19375 15.545 -4.875 16.4375 C-5.205 17.0975 -5.535 17.7575 -5.875 18.4375 C-10.75 16.6875 -10.75 16.6875 -11.875 14.4375 C-12.0625 11.4375 -12.0625 11.4375 -11.875 8.4375 C-11.215 7.7775 -10.555 7.1175 -9.875 6.4375 C-8.555 6.4375 -7.235 6.4375 -5.875 6.4375 C-5.689375 5.509375 -5.689375 5.509375 -5.5 4.5625 C-4.50845063 1.19123213 -3.44269542 0.52388843 0 0 Z " fill="#F0D2BC" transform="translate(282.875,267.5625)"/>
<path d="M0 0 C6.57072264 -0.25057841 12.98064896 0.09486876 19.5 0.875 C20.54124023 0.99270752 20.54124023 0.99270752 21.60351562 1.11279297 C25.09281668 1.55880029 27.01875574 2.01250383 30 4 C29.67 5.32 29.34 6.64 29 8 C26.16032769 8 23.76264289 7.59732819 21 7 C20.01 8.485 20.01 8.485 19 10 C14.37324343 8.6077541 10.35313769 6.70479016 6.125 4.375 C4.97257813 3.74335938 3.82015625 3.11171875 2.6328125 2.4609375 C1.32957031 1.73777344 1.32957031 1.73777344 0 1 C0 0.67 0 0.34 0 0 Z " fill="#1C5335" transform="translate(211,295)"/>
<path d="M0 0 C3.53571429 0.53571429 3.53571429 0.53571429 5 2 C5.5625 4.6875 5.5625 4.6875 5 8 C2.64982117 10.57835154 0.10513934 12.41857216 -3 14 C-6.18783084 14.07084069 -7.30990429 13.483067 -9.875 11.6875 C-11 10 -11 10 -10.8125 7.9375 C-10 6 -10 6 -8 4 C-6 3.33333333 -4 2.66666667 -2 2 C-1.34 1.34 -0.68 0.68 0 0 Z " fill="#C2D8B3" transform="translate(395,277)"/>
<path d="M0 0 C3.53571429 0.53571429 3.53571429 0.53571429 5 2 C5.5625 4.6875 5.5625 4.6875 5 8 C2.64982117 10.57835154 0.10513934 12.41857216 -3 14 C-6.18783084 14.07084069 -7.30990429 13.483067 -9.875 11.6875 C-11 10 -11 10 -10.8125 7.9375 C-10 6 -10 6 -8 4 C-6 3.33333333 -4 2.66666667 -2 2 C-1.34 1.34 -0.68 0.68 0 0 Z " fill="#C3D8B4" transform="translate(143,277)"/>
<path d="M0 0 C1.8125 1.25 1.8125 1.25 3 3 C3 4.32 3 5.64 3 7 C0 7 0 7 -2.1875 5 C-2.785625 4.34 -3.38375 3.68 -4 3 C-4 3.66 -4 4.32 -4 5 C-3.34 5 -2.68 5 -2 5 C-0.66921899 11.41194487 -0.66921899 11.41194487 -2.125 14 C-4 15 -4 15 -6.5625 14.8125 C-9 14 -9 14 -11 12 C-11.51675938 8.12430466 -11.31754464 6.47631696 -9.125 3.1875 C-6.09877602 0.07226944 -4.29132912 -0.41866626 0 0 Z " fill="#3A3631" transform="translate(104,248)"/>
<path d="M0 0 C1.8125 1.25 1.8125 1.25 3 3 C3 4.32 3 5.64 3 7 C2.01 7 1.02 7 0 7 C-0.33 5.68 -0.66 4.36 -1 3 C-1.99 3 -2.98 3 -4 3 C-4 3.66 -4 4.32 -4 5 C-3.34 5 -2.68 5 -2 5 C-0.66921899 11.41194487 -0.66921899 11.41194487 -2.125 14 C-4 15 -4 15 -6.5625 14.8125 C-9 14 -9 14 -11 12 C-11.51675938 8.12430466 -11.31754464 6.47631696 -9.125 3.1875 C-6.09877602 0.07226944 -4.29132912 -0.41866626 0 0 Z " fill="#3A3631" transform="translate(356,248)"/>
<path d="M0 0 C0.763125 0.0825 1.52625 0.165 2.3125 0.25 C2.3125 1.57 2.3125 2.89 2.3125 4.25 C1.3225 4.58 0.3325 4.91 -0.6875 5.25 C0.2715625 5.4665625 0.2715625 5.4665625 1.25 5.6875 C3.3125 6.25 3.3125 6.25 4.3125 7.25 C4.5 10.6875 4.5 10.6875 4.3125 14.25 C3.6525 14.91 2.9925 15.57 2.3125 16.25 C-0.125 16.1875 -0.125 16.1875 -2.6875 15.25 C-4.94333254 12.52744349 -5.63264611 10.6979734 -6.0625 7.1875 C-5.5121869 2.87671403 -4.57626379 0.42569896 0 0 Z " fill="#41201E" transform="translate(385.6875,251.75)"/>
<path d="M0 0 C1.65 0.33 3.3 0.66 5 1 C5 1.99 5 2.98 5 4 C3.68 4.33 2.36 4.66 1 5 C1.33 5 1.66 5 2 5 C5.84 5.84 5.84 5.84 7 7 C7.25 10.4375 7.25 10.4375 7 14 C4 16 4 16 2 15.9375 C-0.942648 14.55813375 -1.6940747 12.93833192 -3 10 C-3.43903359 6.41455901 -3.44120466 4.69857405 -1.5 1.625 C-1.005 1.08875 -0.51 0.5525 0 0 Z " fill="#3D1F1E" transform="translate(131,252)"/>
<path d="M0 0 C2.73058469 1.04404709 4.1850125 2.66465669 6.125 4.8125 C5.795 5.8025 5.465 6.7925 5.125 7.8125 C3.35913086 8.52026367 3.35913086 8.52026367 1.08984375 8.98046875 C0.28095703 9.15126953 -0.52792969 9.32207031 -1.36132812 9.49804688 C-2.21146484 9.66369141 -3.06160156 9.82933594 -3.9375 10 C-5.21850586 10.26586914 -5.21850586 10.26586914 -6.52539062 10.53710938 C-8.63950895 10.9741059 -10.75697834 11.39483206 -12.875 11.8125 C-13.205 10.4925 -13.535 9.1725 -13.875 7.8125 C-9.875 6.47916667 -5.875 5.14583333 -1.875 3.8125 C-2.535 2.8225 -3.195 1.8325 -3.875 0.8125 C-1.875 -0.1875 -1.875 -0.1875 0 0 Z " fill="#1C251E" transform="translate(250.875,248.1875)"/>
<path d="M0 0 C-0.33 0.99 -0.66 1.98 -1 3 C-3.0625 3.6875 -3.0625 3.6875 -5 4 C-5 4.66 -5 5.32 -5 6 C-3.35 6.33 -1.7 6.66 0 7 C-0.33 8.32 -0.66 9.64 -1 11 C0.98 10.67 2.96 10.34 5 10 C3.125 13.875 3.125 13.875 2 15 C0.00041636 15.04080783 -2.00045254 15.04254356 -4 15 C-4.268125 14.195625 -4.53625 13.39125 -4.8125 12.5625 C-5.204375 11.716875 -5.59625 10.87125 -6 10 C-6.99 9.67 -7.98 9.34 -9 9 C-9.33 6.69 -9.66 4.38 -10 2 C-6.3558226 -0.4294516 -4.28758728 -0.16179575 0 0 Z " fill="#DFDCBF" transform="translate(398,229)"/>
<path d="M0 0 C-0.33 0.99 -0.66 1.98 -1 3 C-3.0625 3.6875 -3.0625 3.6875 -5 4 C-5 4.66 -5 5.32 -5 6 C-3.35 6.33 -1.7 6.66 0 7 C-0.33 8.32 -0.66 9.64 -1 11 C0.65 10.67 2.3 10.34 4 10 C3.125 13.875 3.125 13.875 2 15 C0.00041636 15.04080783 -2.00045254 15.04254356 -4 15 C-4.33 13.35 -4.66 11.7 -5 10 C-6.32 9.67 -7.64 9.34 -9 9 C-9.33 6.69 -9.66 4.38 -10 2 C-6.3558226 -0.4294516 -4.28758728 -0.16179575 0 0 Z " fill="#DFDCBF" transform="translate(146,229)"/>
<path d="M0 0 C0.33 0.66 0.66 1.32 1 2 C1.66 2.33 2.32 2.66 3 3 C3 5.33333333 3 7.66666667 3 10 C3.99 10.66 4.98 11.32 6 12 C3.03 17.28 0.06 22.56 -3 28 C-3.99111177 24.03555291 -3.90981297 22.274086 -3.22265625 18.359375 C-2.94711914 16.75449219 -2.94711914 16.75449219 -2.66601562 15.1171875 C-2.46685547 14.00601562 -2.26769531 12.89484375 -2.0625 11.75 C-1.86720703 10.62335938 -1.67191406 9.49671875 -1.47070312 8.3359375 C-0.98773667 5.55593546 -0.49724577 2.77747735 0 0 Z " fill="#712A27" transform="translate(411,267)"/>
<path d="M0 0 C1.86783046 5.48675196 2.2358396 10.22192976 2 16 C1.34 16 0.68 16 0 16 C-0.66 16.99 -1.32 17.98 -2 19 C-2.66 19 -3.32 19 -4 19 C-4.06058594 18.26394531 -4.12117187 17.52789062 -4.18359375 16.76953125 C-4.26738281 15.79371094 -4.35117188 14.81789062 -4.4375 13.8125 C-4.51871094 12.84957031 -4.59992188 11.88664063 -4.68359375 10.89453125 C-4.97666151 8.21350398 -5.42703754 5.6337014 -6 3 C-2.25 0 -2.25 0 0 0 Z " fill="#DB2D2D" transform="translate(204,240)"/>
<path d="M0 0 C1.1875 1.6875 1.1875 1.6875 2 4 C-0.41155281 9.20387712 -3.97148352 12.11183708 -8.6875 15.1875 C-9.49574219 15.71730469 -10.30398438 16.24710938 -11.13671875 16.79296875 C-11.75160156 17.19128906 -12.36648438 17.58960938 -13 18 C-13.33 17.34 -13.66 16.68 -14 16 C-12.70529169 13.56570972 -11.36738392 11.30809687 -9.875 9 C-9.483125 8.35804688 -9.09125 7.71609375 -8.6875 7.0546875 C-6.26143396 3.26495036 -4.56075763 1.1685927 0 0 Z " fill="#2E2B28" transform="translate(344,237)"/>
<path d="M0 0 C0.66 0.33 1.32 0.66 2 1 C2 3.33333333 2 5.66666667 2 8 C2.99 8.66 3.98 9.32 5 10 C2.03 15.28 -0.94 20.56 -4 26 C-4.89492504 22.42029983 -5.05115893 21.00887814 -4.51171875 17.55859375 C-4.38216797 16.72779297 -4.25261719 15.89699219 -4.11914062 15.04101562 C-3.90547852 13.75227539 -3.90547852 13.75227539 -3.6875 12.4375 C-3.55666016 11.57447266 -3.42582031 10.71144531 -3.29101562 9.82226562 C-2.25532834 3.38299251 -2.25532834 3.38299251 0 0 Z " fill="#6E2926" transform="translate(160,269)"/>
<path d="M0 0 C0.66 0 1.32 0 2 0 C2.6875 1.6875 2.6875 1.6875 3 4 C0.04973254 10.55614992 -6.31838103 13.98944544 -12 18 C-12.33 17.34 -12.66 16.68 -13 16 C-11.84933763 13.71354169 -10.65820431 11.6041539 -9.3125 9.4375 C-8.78366211 8.53354492 -8.78366211 8.53354492 -8.24414062 7.61132812 C-5.52715426 3.18567026 -5.52715426 3.18567026 -2.79296875 2.22265625 C-2.20128906 2.14917969 -1.60960938 2.07570312 -1 2 C-0.67 1.34 -0.34 0.68 0 0 Z " fill="#2C2A27" transform="translate(91,237)"/>
<path d="M0 0 C1.32 0 2.64 0 4 0 C4 5.61 4 11.22 4 17 C0.24364431 16.24872886 -1.83210307 15.75994274 -5 14 C-5 13.34 -5 12.68 -5 12 C-4.34 12 -3.68 12 -3 12 C-3 11.34 -3 10.68 -3 10 C-2.34 10 -1.68 10 -1 10 C-1 10.66 -1 11.32 -1 12 C-0.34 12 0.32 12 1 12 C1 11.34 1 10.68 1 10 C1.66 10 2.32 10 3 10 C3 9.34 3 8.68 3 8 C2.34 8 1.68 8 1 8 C1 7.34 1 6.68 1 6 C0.38125 6.185625 -0.2375 6.37125 -0.875 6.5625 C-3 7 -3 7 -5 6 C-5 5.34 -5 4.68 -5 4 C-4.34 4 -3.68 4 -3 4 C-3 3.34 -3 2.68 -3 2 C-2.01 2.33 -1.02 2.66 0 3 C0 2.01 0 1.02 0 0 Z " fill="#1F4A2F" transform="translate(247,298)"/>
<path d="M0 0 C4.29619614 3.95702276 6.86045363 6.86020672 7.125 12.8125 C7.08375 13.534375 7.0425 14.25625 7 15 C6.34 15 5.68 15 5 15 C5.33 16.65 5.66 18.3 6 20 C2.125 15.25 2.125 15.25 1 13 C0.01 13 -0.98 13 -2 13 C-2 10.36 -2 7.72 -2 5 C-1.01 5 -0.02 5 1 5 C1.33 5.66 1.66 6.32 2 7 C2.33 6.01 2.66 5.02 3 4 C2.01 4 1.02 4 0 4 C0 2.68 0 1.36 0 0 Z " fill="#8B2625" transform="translate(294,236)"/>
<path d="M0 0 C1.4370809 -0.05422947 2.87475462 -0.09289723 4.3125 -0.125 C5.11300781 -0.14820313 5.91351563 -0.17140625 6.73828125 -0.1953125 C9 0 9 0 12 2 C11.67 3.32 11.34 4.64 11 6 C8.16032769 6 5.76264289 5.59732819 3 5 C2.01 6.485 2.01 6.485 1 8 C-0.98 7.34 -2.96 6.68 -5 6 C-4.01 5.67 -3.02 5.34 -2 5 C-1.34 5.33 -0.68 5.66 0 6 C-0.185625 5.38125 -0.37125 4.7625 -0.5625 4.125 C-1 2 -1 2 0 0 Z " fill="#137544" transform="translate(229,297)"/>
<path d="M0 0 C0.33 0 0.66 0 1 0 C1.33 2.64 1.66 5.28 2 8 C2.99 7.67 3.98 7.34 5 7 C5.73323796 4.98491642 5.73323796 4.98491642 6 3 C6.99 3.33 7.98 3.66 9 4 C8.07403228 6.46325392 7.1349904 8.9200367 6.1875 11.375 C5.92646484 12.07367188 5.66542969 12.77234375 5.39648438 13.4921875 C3.98168239 17.12525926 3.32297203 18.78468531 0 21 C0 14.07 0 7.14 0 0 Z " fill="#6F3533" transform="translate(196,264)"/>
<path d="M0 0 C3.31658613 4.9748792 4.38479461 11.03568353 4 17 C2.68 17 1.36 17 0 17 C-0.33 13.7 -0.66 10.4 -1 7 C-2.32 7.33 -3.64 7.66 -5 8 C-4.64950425 4.75791433 -4.43778819 3.38472296 -1.9375 1.1875 C-1.298125 0.795625 -0.65875 0.40375 0 0 Z " fill="#331E1D" transform="translate(124,254)"/>
<path d="M0 0 C0 0.66 0 1.32 0 2 C1.65 1.67 3.3 1.34 5 1 C4.21625 1.598125 3.4325 2.19625 2.625 2.8125 C-0.14574323 4.91085249 -0.14574323 4.91085249 -2 8 C-5.81884318 8.42431591 -8.12405448 8.5390434 -11.4375 6.5 C-11.953125 6.005 -12.46875 5.51 -13 5 C-8.77614544 1.55834073 -5.49939416 0 0 0 Z " fill="#079450" transform="translate(375,218)"/>
<path d="M0 0 C2.27474277 3.41211416 2.56629644 5.6568529 3.125 9.6875 C3.29257812 10.86699219 3.46015625 12.04648437 3.6328125 13.26171875 C3.75398438 14.16535156 3.87515625 15.06898438 4 16 C2.68 16.33 1.36 16.66 0 17 C-0.33 13.7 -0.66 10.4 -1 7 C-2.32 7.33 -3.64 7.66 -5 8 C-4.64950425 4.75791433 -4.43778819 3.38472296 -1.9375 1.1875 C-1.298125 0.795625 -0.65875 0.40375 0 0 Z " fill="#2E1E1C" transform="translate(376,254)"/>
<path d="M0 0 C0 0.66 0 1.32 0 2 C1.32 1.67 2.64 1.34 4 1 C2.33333333 2.66666667 0.66666667 4.33333333 -1 6 C-1.33 6.66 -1.66 7.32 -2 8 C-8.4 8.36923077 -8.4 8.36923077 -11.4375 6.5 C-11.953125 6.005 -12.46875 5.51 -13 5 C-8.77614544 1.55834073 -5.49939416 0 0 0 Z " fill="#079550" transform="translate(123,218)"/>
<path d="M0 0 C0.99 0.33 1.98 0.66 3 1 C2.67 1.66 2.34 2.32 2 3 C1.49957854 5.91538029 1.49957854 5.91538029 2 9 C4.37842577 11.40406384 4.37842577 11.40406384 7 13 C6.67 14.32 6.34 15.64 6 17 C5.56429687 16.60167969 5.12859375 16.20335937 4.6796875 15.79296875 C0.99005314 12.51063169 -2.43077198 10.00600254 -7 8 C-7 7.34 -7 6.68 -7 6 C-4.625 4.9375 -4.625 4.9375 -2 4 C-1.34 4.33 -0.68 4.66 0 5 C0 3.35 0 1.7 0 0 Z " fill="#A99485" transform="translate(92,251)"/>
<path d="M0 0 C0 0.66 0 1.32 0 2 C0.66 2.33 1.32 2.66 2 3 C1.01 3.495 1.01 3.495 0 4 C0 4.66 0 5.32 0 6 C0.66 6 1.32 6 2 6 C1.67 6.66 1.34 7.32 1 8 C0.29875 7.9175 -0.4025 7.835 -1.125 7.75 C-5.74171202 8.15145322 -8.79491591 10.79491591 -12 14 C-12.99 13.67 -13.98 13.34 -15 13 C-12 10 -9 7 -6 4 C-5.28328125 3.24203125 -4.5665625 2.4840625 -3.828125 1.703125 C-2 0 -2 0 0 0 Z " fill="#C3C7AB" transform="translate(254,209)"/>
<path d="M0 0 C5.12256116 0.24393148 7.41862284 1.86113919 10.8984375 5.33203125 C12 7 12 7 12 11 C10.35 10.67 8.7 10.34 7 10 C7 9.34 7 8.68 7 8 C7.66 8 8.32 8 9 8 C9 7.34 9 6.68 9 6 C7.88625 6.37125 7.88625 6.37125 6.75 6.75 C4 7 4 7 1.6875 5.25 C0 3 0 3 0 0 Z " fill="#04A959" transform="translate(268,210)"/>
<path d="M0 0 C4.62 2.31 9.24 4.62 14 7 C14 7.33 14 7.66 14 8 C5.09 8 -3.82 8 -13 8 C-13 7.67 -13 7.34 -13 7 C-7.39 7 -1.78 7 4 7 C3.67 5.68 3.34 4.36 3 3 C2.01 3 1.02 3 0 3 C0 2.01 0 1.02 0 0 Z " fill="#356149" transform="translate(385,297)"/>
<path d="M0 0 C4.62 2.31 9.24 4.62 14 7 C14 7.33 14 7.66 14 8 C5.09 8 -3.82 8 -13 8 C-13 7.67 -13 7.34 -13 7 C-7.39 7 -1.78 7 4 7 C3.67 5.68 3.34 4.36 3 3 C2.01 3 1.02 3 0 3 C0 2.01 0 1.02 0 0 Z " fill="#346249" transform="translate(133,297)"/>
<path d="M0 0 C1.98 0 3.96 0 6 0 C6.66 1.65 7.32 3.3 8 5 C3.38 5.33 -1.24 5.66 -6 6 C-6 5.34 -6 4.68 -6 4 C-6.66 3.34 -7.32 2.68 -8 2 C-7 1 -7 1 -3.4375 0.9375 C-2.303125 0.958125 -1.16875 0.97875 0 1 C0 0.67 0 0.34 0 0 Z " fill="#08904E" transform="translate(370,296)"/>
<path d="M0 0 C1.98 0 3.96 0 6 0 C6.66 1.65 7.32 3.3 8 5 C3.38 5.33 -1.24 5.66 -6 6 C-6 5.34 -6 4.68 -6 4 C-6.66 3.34 -7.32 2.68 -8 2 C-7 1 -7 1 -3.4375 0.9375 C-2.303125 0.958125 -1.16875 0.97875 0 1 C0 0.67 0 0.34 0 0 Z " fill="#08904E" transform="translate(118,296)"/>
<path d="M0 0 C1.2989839 0.90626784 2.58893167 1.82549537 3.875 2.75 C4.59429687 3.26046875 5.31359375 3.7709375 6.0546875 4.296875 C8.08570565 6.07503547 8.97855012 7.52701607 10 10 C9.360625 10.103125 8.72125 10.20625 8.0625 10.3125 C7.381875 10.539375 6.70125 10.76625 6 11 C5.67 11.99 5.34 12.98 5 14 C4.401875 13.21625 3.80375 12.4325 3.1875 11.625 C1.08914751 8.85425677 1.08914751 8.85425677 -2 7 C-1.67 5.68 -1.34 4.36 -1 3 C-0.01 3.99 0.98 4.98 2 6 C1.34 4.02 0.68 2.04 0 0 Z " fill="#D72D2D" transform="translate(343,277)"/>
<path d="M0 0 C1.2989839 0.90626784 2.58893167 1.82549537 3.875 2.75 C4.59429687 3.26046875 5.31359375 3.7709375 6.0546875 4.296875 C8.08570565 6.07503547 8.97855012 7.52701607 10 10 C9.360625 10.103125 8.72125 10.20625 8.0625 10.3125 C7.381875 10.539375 6.70125 10.76625 6 11 C5.67 11.99 5.34 12.98 5 14 C4.401875 13.21625 3.80375 12.4325 3.1875 11.625 C1.08914751 8.85425677 1.08914751 8.85425677 -2 7 C-1.67 5.68 -1.34 4.36 -1 3 C-0.01 3.99 0.98 4.98 2 6 C1.34 4.02 0.68 2.04 0 0 Z " fill="#C62B2B" transform="translate(91,277)"/>
<path d="M0 0 C3 1 3 1 4 3 C4.66 2.67 5.32 2.34 6 2 C6 4.64 6 7.28 6 10 C-1.57142857 5.85714286 -1.57142857 5.85714286 -4 3 C-3.34 3 -2.68 3 -2 3 C-2 2.34 -2 1.68 -2 1 C-1.34 0.67 -0.68 0.34 0 0 Z " fill="#E9CAB4" transform="translate(106,277)"/>
<path d="M0 0 C0.66 0 1.32 0 2 0 C2.41846009 1.57750424 2.80896389 3.16244248 3.1875 4.75 C3.40792969 5.63171875 3.62835938 6.5134375 3.85546875 7.421875 C4 10 4 10 2.67578125 12.328125 C1 14 1 14 -1 14 C-1.22142255 12.04310341 -1.4267568 10.08438048 -1.625 8.125 C-1.74101562 7.03445312 -1.85703125 5.94390625 -1.9765625 4.8203125 C-1.98429688 3.88960937 -1.99203125 2.95890625 -2 2 C-1.34 1.34 -0.68 0.68 0 0 Z " fill="#9E2827" transform="translate(202,240)"/>
<path d="M0 0 C0.66 0 1.32 0 2 0 C2 0.99 2 1.98 2 3 C2.99 3 3.98 3 5 3 C5.33 4.32 5.66 5.64 6 7 C2.7 7 -0.6 7 -4 7 C-4 6.34 -4 5.68 -4 5 C-5.65 5 -7.3 5 -9 5 C-5.91190305 3.23537317 -4.76687864 3 -1 3 C-0.67 2.67 -0.34 2.34 0 2 C0 1.34 0 0.68 0 0 Z " fill="#183B28" transform="translate(131,297)"/>
<path d="M0 0 C1.32 0 2.64 0 4 0 C3.48474397 5.28137429 1.74522883 8.57221156 -1 13 C-1.66 12.67 -2.32 12.34 -3 12 C-3 10.02 -3 8.04 -3 6 C-2.01 5.67 -1.02 5.34 0 5 C-0.2784375 4.0409375 -0.2784375 4.0409375 -0.5625 3.0625 C-0.706875 2.381875 -0.85125 1.70125 -1 1 C-0.67 0.67 -0.34 0.34 0 0 Z " fill="#953433" transform="translate(169,261)"/>
<path d="M0 0 C1.32 0 2.64 0 4 0 C3.48474397 5.28137429 1.74522883 8.57221156 -1 13 C-1.66 12.67 -2.32 12.34 -3 12 C-3 10.02 -3 8.04 -3 6 C-2.01 5.67 -1.02 5.34 0 5 C-0.2784375 4.0409375 -0.2784375 4.0409375 -0.5625 3.0625 C-0.706875 2.381875 -0.85125 1.70125 -1 1 C-0.67 0.67 -0.34 0.34 0 0 Z " fill="#943332" transform="translate(421,261)"/>
<path d="M0 0 C0.66 0.33 1.32 0.66 2 1 C0.71937515 2.7074998 -0.61767557 4.37373596 -2 6 C-2.66 6 -3.32 6 -4 6 C-4.061875 6.61875 -4.12375 7.2375 -4.1875 7.875 C-5 10 -5 10 -7.5625 11.25 C-8.366875 11.4975 -9.17125 11.745 -10 12 C-9.34 10.68 -8.68 9.36 -8 8 C-8.66 8 -9.32 8 -10 8 C-10 7.34 -10 6.68 -10 6 C-7.8828125 4.45703125 -7.8828125 4.45703125 -5.125 2.8125 C-4.22007812 2.26207031 -3.31515625 1.71164063 -2.3828125 1.14453125 C-1.20332031 0.57798828 -1.20332031 0.57798828 0 0 Z " fill="#00BB61" transform="translate(226,215)"/>
<path d="M0 0 C0.66 0 1.32 0 2 0 C2 0.66 2 1.32 2 2 C2.66 2 3.32 2 4 2 C4 1.34 4 0.68 4 0 C4.66 0 5.32 0 6 0 C6.33 2.31 6.66 4.62 7 7 C3.65626525 6.44271087 0.96687001 5.64826111 -2 4 C-2 3.34 -2 2.68 -2 2 C-1.34 2 -0.68 2 0 2 C0 1.34 0 0.68 0 0 Z " fill="#157C49" transform="translate(244,308)"/>
<path d="M0 0 C1.77074917 -0.02705729 3.54161711 -0.04642195 5.3125 -0.0625 C6.29863281 -0.07410156 7.28476563 -0.08570313 8.30078125 -0.09765625 C11 0 11 0 14 1 C14 1.66 14 2.32 14 3 C10.25 4.125 10.25 4.125 8 3 C7.67 3.66 7.34 4.32 7 5 C3.535 3.02 3.535 3.02 0 1 C0 0.67 0 0.34 0 0 Z " fill="#29633F" transform="translate(211,295)"/>
<path d="M0 0 C0.33 0.66 0.66 1.32 1 2 C1.66 2.33 2.32 2.66 3 3 C3 5.33333333 3 7.66666667 3 10 C3.99 10.66 4.98 11.32 6 12 C5.34 12.66 4.68 13.32 4 14 C2.35 13.01 0.7 12.02 -1 11 C-0.67 7.37 -0.34 3.74 0 0 Z " fill="#A12E2C" transform="translate(411,267)"/>
<path d="M0 0 C2.97 0 5.94 0 9 0 C9 1.65 9 3.3 9 5 C8.01 5 7.02 5 6 5 C5.67 5.33 5.34 5.66 5 6 C3.68 6 2.36 6 1 6 C0.67 4.02 0.34 2.04 0 0 Z " fill="#672322" transform="translate(160,261)"/>
<path d="M0 0 C0.66 0.33 1.32 0.66 2 1 C2 3.33333333 2 5.66666667 2 8 C2.99 8.66 3.98 9.32 5 10 C4.34 10.66 3.68 11.32 3 12 C0.525 11.01 0.525 11.01 -2 10 C-2.25 3.375 -2.25 3.375 0 0 Z " fill="#A02E2C" transform="translate(160,269)"/>
<path d="M0 0 C0.66 0.33 1.32 0.66 2 1 C0.625 2.5 0.625 2.5 -1 4 C-1.66 4 -2.32 4 -3 4 C-3.33 4.66 -3.66 5.32 -4 6 C-4 5.01 -4 4.02 -4 3 C-2 1.3125 -2 1.3125 0 0 Z M-9 5 C-6.9375 5.4375 -6.9375 5.4375 -5 6 C-6.32 7.65 -7.64 9.3 -9 11 C-8.34 11 -7.68 11 -7 11 C-7.33 11.99 -7.66 12.98 -8 14 C-8.99 14 -9.98 14 -11 14 C-10.125 6.125 -10.125 6.125 -9 5 Z " fill="#DFCAB6" transform="translate(338,249)"/>
<path d="M0 0 C2.46717524 2.2639961 4.10134139 4.59060244 5.75 7.5 C6.42289062 8.66015625 6.42289062 8.66015625 7.109375 9.84375 C8 12 8 12 7 15 C5.02 11.535 5.02 11.535 3 8 C2.01 8 1.02 8 0 8 C0 5.36 0 2.72 0 0 Z " fill="#EF2F2F" transform="translate(292,241)"/>
<path d="M0 0 C1.98 0 3.96 0 6 0 C6.33 0.99 6.66 1.98 7 3 C6.34 3.66 5.68 4.32 5 5 C4.01 4.67 3.02 4.34 2 4 C2 5.32 2 6.64 2 8 C1.34 8 0.68 8 0 8 C-0.79953138 4.71303767 -1.09658936 3.28976808 0 0 Z " fill="#432320" transform="translate(412,261)"/>
<path d="M0 0 C0.99 0.33 1.98 0.66 3 1 C3 2.32 3 3.64 3 5 C2.01 5.495 2.01 5.495 1 6 C0.67 6.99 0.34 7.98 0 9 C-1.32 8.67 -2.64 8.34 -4 8 C-4.33 6.68 -4.66 5.36 -5 4 C-3.35 3.67 -1.7 3.34 0 3 C0 2.01 0 1.02 0 0 Z " fill="#6E2422" transform="translate(418,261)"/>
<path d="M0 0 C2.31 0 4.62 0 7 0 C7.33 1.32 7.66 2.64 8 4 C6.68 3.34 5.36 2.68 4 2 C4 2.66 4 3.32 4 4 C3.34 4 2.68 4 2 4 C2 4.66 2 5.32 2 6 C1.34 6 0.68 6 0 6 C0 6.66 0 7.32 0 8 C-0.66 8 -1.32 8 -2 8 C-1.67 7.4225 -1.34 6.845 -1 6.25 C0.27075898 3.80116138 0.27075898 3.80116138 0 0 Z " fill="#193726" transform="translate(240,298)"/>
<path d="M0 0 C0.66 0.66 1.32 1.32 2 2 C4.0745356 2.1490712 4.0745356 2.1490712 6 1 C6.33 1.99 6.66 2.98 7 4 C4.6120592 6.3879408 3.23091381 6.35381724 0 7 C-0.66 7.66 -1.32 8.32 -2 9 C-1.125 1.125 -1.125 1.125 0 0 Z " fill="#452C24" transform="translate(160,263)"/>
<path d="M0 0 C0.66 0 1.32 0 2 0 C0.48446596 3.47775179 -1.5773456 5.9557984 -4.125 8.75 C-5.21167969 9.94882813 -5.21167969 9.94882813 -6.3203125 11.171875 C-6.87460938 11.77515625 -7.42890625 12.3784375 -8 13 C-8.99 12.67 -9.98 12.34 -11 12 C-10.37351563 11.38511719 -9.74703125 10.77023438 -9.1015625 10.13671875 C-8.28429687 9.32847656 -7.46703125 8.52023438 -6.625 7.6875 C-5.40683594 6.48673828 -5.40683594 6.48673828 -4.1640625 5.26171875 C-1.87395158 2.99990063 -1.87395158 2.99990063 0 0 Z " fill="#34312D" transform="translate(250,210)"/>
<path d="M0 0 C-0.969375 0.61875 -1.93875 1.2375 -2.9375 1.875 C-6.02835362 3.65678846 -6.02835362 3.65678846 -7 6 C-9.31 6 -11.62 6 -14 6 C-11.86197902 3.67490219 -9.81401863 2.17832764 -7 0.75 C-6.319375 0.39421875 -5.63875 0.0384375 -4.9375 -0.328125 C-3 -1 -3 -1 0 0 Z " fill="#05A156" transform="translate(380,220)"/>
<path d="M0 0 C1.67542976 0.28604898 3.34385343 0.61781233 5 1 C5 1.66 5 2.32 5 3 C5.66 3 6.32 3 7 3 C7 3.66 7 4.32 7 5 C6.34 5 5.68 5 5 5 C5 5.66 5 6.32 5 7 C4.34 7 3.68 7 3 7 C3 6.34 3 5.68 3 5 C2.01 4.67 1.02 4.34 0 4 C-0.33 3.01 -0.66 2.02 -1 1 C-0.67 0.67 -0.34 0.34 0 0 Z " fill="#193525" transform="translate(243,303)"/>
<path d="M0 0 C1.2989839 0.90626784 2.58893167 1.82549537 3.875 2.75 C4.59429687 3.26046875 5.31359375 3.7709375 6.0546875 4.296875 C8.08570565 6.07503547 8.97855012 7.52701607 10 10 C7.03 9.505 7.03 9.505 4 9 C4 8.01 4 7.02 4 6 C2.68733482 4.64631404 1.35432675 3.31200404 0 2 C0 1.34 0 0.68 0 0 Z " fill="#EB2F2F" transform="translate(91,277)"/>
<path d="M0 0 C0.66 0.33 1.32 0.66 2 1 C1.195625 1.61875 0.39125 2.2375 -0.4375 2.875 C-3.03874519 4.74164041 -3.03874519 4.74164041 -4 7 C-6.31 7 -8.62 7 -11 7 C-8.84658594 4.65082102 -6.78332063 3.17556996 -3.9375 1.75 C-3.24527344 1.39421875 -2.55304688 1.0384375 -1.83984375 0.671875 C-1.23269531 0.45015625 -0.62554687 0.2284375 0 0 Z " fill="#04A859" transform="translate(125,219)"/>
<path d="M0 0 C1.32 0 2.64 0 4 0 C2.86180149 3.41459553 1.75994482 4.3324158 -0.9375 6.625 C-1.64777344 7.23601562 -2.35804688 7.84703125 -3.08984375 8.4765625 C-5 10 -5 10 -7 11 C-5.47038014 7.55835531 -3.37270934 4.90848242 -1 2 C-0.67 1.34 -0.34 0.68 0 0 Z " fill="#03AB5A" transform="translate(219,213)"/>
<path d="M0 0 C1.98 0 3.96 0 6 0 C6 0.66 6 1.32 6 2 C3.23547967 3.38226016 0.9538637 3.09525387 -2.125 3.0625 C-3.22070312 3.05347656 -4.31640625 3.04445313 -5.4453125 3.03515625 C-6.70988281 3.01775391 -6.70988281 3.01775391 -8 3 C-7.67 2.34 -7.34 1.68 -7 1 C-4.69 1 -2.38 1 0 1 C0 0.67 0 0.34 0 0 Z " fill="#069C53" transform="translate(370,296)"/>
<path d="M0 0 C1.98 0 3.96 0 6 0 C6 0.66 6 1.32 6 2 C3.23547967 3.38226016 0.9538637 3.09525387 -2.125 3.0625 C-3.22070312 3.05347656 -4.31640625 3.04445313 -5.4453125 3.03515625 C-6.70988281 3.01775391 -6.70988281 3.01775391 -8 3 C-7.67 2.34 -7.34 1.68 -7 1 C-4.69 1 -2.38 1 0 1 C0 0.67 0 0.34 0 0 Z " fill="#069C53" transform="translate(118,296)"/>
<path d="M0 0 C0.66 0 1.32 0 2 0 C2.6875 1.8125 2.6875 1.8125 3 4 C1.75 5.75 1.75 5.75 0 7 C-0.99 7 -1.98 7 -3 7 C-2.38722388 4.03824877 -1.74627478 2.61941217 0 0 Z " fill="#D12D2C" transform="translate(91,237)"/>
<path d="M0 0 C2.5625 2.1875 2.5625 2.1875 5 5 C4.8125 7.8125 4.8125 7.8125 4 10 C3.01 9.34 2.02 8.68 1 8 C2 5 2 5 3 4 C2.01 4 1.02 4 0 4 C0 2.68 0 1.36 0 0 Z " fill="#E92F2E" transform="translate(294,236)"/>
<path d="M0 0 C0.66 1.32 1.32 2.64 2 4 C0.6875 5.5 0.6875 5.5 -1 7 C-1.99 7 -2.98 7 -4 7 C-3.43628586 3.73045798 -2.50037734 2.17424117 0 0 Z " fill="#D32D2C" transform="translate(344,237)"/>
<path d="M0 0 C0.103125 0.639375 0.20625 1.27875 0.3125 1.9375 C0.539375 2.618125 0.76625 3.29875 1 4 C1.99 4.33 2.98 4.66 4 5 C2.68 7.31 1.36 9.62 0 12 C-1.53166168 7.91556885 -0.63081652 4.20544343 0 0 Z " fill="#6A4B3C" transform="translate(408,283)"/>
<path d="M0 0 C2.9375 0.375 2.9375 0.375 6 1 C6.33 1.66 6.66 2.32 7 3 C6.67 3.66 6.34 4.32 6 5 C4.02 4.34 2.04 3.68 0 3 C0 2.01 0 1.02 0 0 Z " fill="#079450" transform="translate(268,210)"/>
<path d="M0 0 C0.66 0 1.32 0 2 0 C2 0.99 2 1.98 2 3 C2.99 3 3.98 3 5 3 C5.33 4.32 5.66 5.64 6 7 C4.35 7 2.7 7 1 7 C0.67 4.69 0.34 2.38 0 0 Z " fill="#1B2E22" transform="translate(383,297)"/>
<path d="M0 0 C0.66 0 1.32 0 2 0 C2 0.99 2 1.98 2 3 C2.99 3 3.98 3 5 3 C5.33 4.32 5.66 5.64 6 7 C4.35 7 2.7 7 1 7 C0.67 4.69 0.34 2.38 0 0 Z " fill="#1A2E22" transform="translate(131,297)"/>
<path d="M0 0 C0.66 0.33 1.32 0.66 2 1 C0.68 2.65 -0.64 4.3 -2 6 C-3.65 5.67 -5.3 5.34 -7 5 C-2.25 1.125 -2.25 1.125 0 0 Z " fill="#04A557" transform="translate(226,215)"/>
<path d="M0 0 C0 0.99 0 1.98 0 3 C-1.98 3.66 -3.96 4.32 -6 5 C-6 3.68 -6 2.36 -6 1 C-4 0 -4 0 0 0 Z " fill="#10673C" transform="translate(375,218)"/>
<path d="M0 0 C0 0.99 0 1.98 0 3 C-1.98 3.66 -3.96 4.32 -6 5 C-6 3.68 -6 2.36 -6 1 C-4 0 -4 0 0 0 Z " fill="#10673C" transform="translate(123,218)"/>
<path d="M0 0 C1.98 0.495 1.98 0.495 4 1 C2.68 3.31 1.36 5.62 0 8 C-0.98120464 4.94736336 -0.98120464 3.05263664 0 0 Z " fill="#74433B" transform="translate(156,287)"/>
<path d="M0 0 C1.11375 0.495 1.11375 0.495 2.25 1 C5.13883312 2.22782871 5.13883312 2.22782871 9 2 C9 2.66 9 3.32 9 4 C8.01 4.495 8.01 4.495 7 5 C6.67 5.66 6.34 6.32 6 7 C4.02 4.69 2.04 2.38 0 0 Z " fill="#D1BEA9" transform="translate(344,260)"/>
<path d="M0 0 C2.475 0.495 2.475 0.495 5 1 C4.67 2.32 4.34 3.64 4 5 C3.01 5 2.02 5 1 5 C0.67 3.35 0.34 1.7 0 0 Z " fill="#115F38" transform="translate(236,298)"/>
<path d="M0 0 C0.99 0.33 1.98 0.66 3 1 C2.34 3.31 1.68 5.62 1 8 C0.67 7.34 0.34 6.68 0 6 C-0.66 5.67 -1.32 5.34 -2 5 C-1.34 5 -0.68 5 0 5 C0 4.34 0 3.68 0 3 C-0.66 3 -1.32 3 -2 3 C-2 2.34 -2 1.68 -2 1 C-1.34 0.67 -0.68 0.34 0 0 Z " fill="#E2BBA7" transform="translate(344,251)"/>
<path d="M0 0 C1.32 0.66 2.64 1.32 4 2 C4 2.66 4 3.32 4 4 C0.25 5.125 0.25 5.125 -2 4 C-2 3.34 -2 2.68 -2 2 C-1.34 2 -0.68 2 0 2 C0 1.34 0 0.68 0 0 Z " fill="#0E6D3F" transform="translate(244,300)"/>
<path d="M0 0 C0.99 0.33 1.98 0.66 3 1 C2.67 2.32 2.34 3.64 2 5 C1.01 5 0.02 5 -1 5 C-0.67 3.35 -0.34 1.7 0 0 Z " fill="#D0C9B1" transform="translate(252,220)"/>
</svg>
